<svg xmlns="http://www.w3.org/2000/svg" width="153.094" height="91.88" viewBox="0 0 153.094 91.88">
  <metadata><?xpacket begin="﻿" id="W5M0MpCehiHzreSzNTczkc9d"?>
<x:xmpmeta xmlns:x="adobe:ns:meta/" x:xmptk="Adobe XMP Core 5.6-c142 79.160924, 2017/07/13-01:06:39        ">
   <rdf:RDF xmlns:rdf="http://www.w3.org/1999/02/22-rdf-syntax-ns#">
      <rdf:Description rdf:about=""/>
   </rdf:RDF>
</x:xmpmeta>
                                                                                                    
                                                                                                    
                                                                                                    
                                                                                                    
                                                                                                    
                                                                                                    
                                                                                                    
                                                                                                    
                                                                                                    
                                                                                                    
                                                                                                    
                                                                                                    
                                                                                                    
                                                                                                    
                                                                                                    
                                                                                                    
                                                                                                    
                                                                                                    
                                                                                                    
                                                                                                    
                           
<?xpacket end="w"?></metadata>
<defs>
    <style>
      .cls-1 {
        fill: #fff;
        fill-rule: evenodd;
      }
    </style>
  </defs>
  <path id="关于" class="cls-1" d="M602.3,1157.68a3.268,3.268,0,0,0-2.4,1.01,3.465,3.465,0,0,0-1,2.53v2.33a3.311,3.311,0,0,0,1,2.42,3.23,3.23,0,0,0,2.4,1.01h20.9a1.793,1.793,0,0,1,1.8.85,1.865,1.865,0,0,1-.4,1.94l-13.3,18.03a7.289,7.289,0,0,1-2.45,1.99,6.686,6.686,0,0,1-3.15.89h-3.2a3.386,3.386,0,0,0-2.5,1.01,3.465,3.465,0,0,0-1,2.53v2.23a3.485,3.485,0,0,0,1,2.47,3.287,3.287,0,0,0,2.5,1.06h7.111a7.288,7.288,0,0,0,3.1-.8,6.752,6.752,0,0,0,2.605-2l14.422-18.1a2.714,2.714,0,0,1,2.153-1.1,3.316,3.316,0,0,1,2.353,1.1l14.422,18.1a7.652,7.652,0,0,0,5.609,2.8H661.6a3.335,3.335,0,0,0,2.453-1.06,3.409,3.409,0,0,0,1.052-2.47v-2.23a3.38,3.38,0,0,0-1.05-2.53,3.438,3.438,0,0,0-2.45-1.01h-3.4a6.533,6.533,0,0,1-3.05-.89,7.279,7.279,0,0,1-2.45-1.99l-13.3-18.03a1.668,1.668,0,0,1-.55-1.94,1.907,1.907,0,0,1,1.85-.85h20.9a3.4,3.4,0,0,0,2.45-1.01,3.235,3.235,0,0,0,1.05-2.42v-2.33a3.38,3.38,0,0,0-1.05-2.53,3.438,3.438,0,0,0-2.45-1.01H640a3.409,3.409,0,0,1-2.5-.99,3.244,3.244,0,0,1-1-2.39l0.1-11.14a3.351,3.351,0,0,1,1-2.48,3.417,3.417,0,0,1,2.5-1h21.5a3.331,3.331,0,0,0,2.45-1.06,3.407,3.407,0,0,0,1.05-2.47v-2.23a3.382,3.382,0,0,0-1.052-2.53,3.443,3.443,0,0,0-2.453-1.01H602.3a3.274,3.274,0,0,0-2.4,1.01,3.458,3.458,0,0,0-1,2.53v2.23a3.491,3.491,0,0,0,1,2.47,3.17,3.17,0,0,0,2.4,1.06h21.4a3.419,3.419,0,0,1,2.5,1,3.354,3.354,0,0,1,1,2.48v11.14a3.248,3.248,0,0,1-1,2.39,3.41,3.41,0,0,1-2.5.99H602.3Zm-3.4-35.8a3.359,3.359,0,0,0,1.011,2.5,3.313,3.313,0,0,0,2.427,1H622.5a3.568,3.568,0,0,0,2.5-1.01,3.271,3.271,0,0,0,1.1-2.52v-2.23a3.319,3.319,0,0,0-1.1-2.47,3.507,3.507,0,0,0-2.5-1.07H611.6a3.318,3.318,0,0,1-2.4-.98,3.216,3.216,0,0,1-1-2.37v-1.19a3.2,3.2,0,0,0-1.011-2.37,3.469,3.469,0,0,0-2.526-.99h-2.325a3.353,3.353,0,0,0-2.427,1,3.262,3.262,0,0,0-1.011,2.4v10.3Zm65.137,2.5a3.282,3.282,0,0,0,1.063-2.5v-10.3a3.192,3.192,0,0,0-1.063-2.4,3.522,3.522,0,0,0-2.474-1h-2.225a3.465,3.465,0,0,0-2.527.99,3.2,3.2,0,0,0-1.011,2.37v1.19a3.22,3.22,0,0,1-1,2.37,3.442,3.442,0,0,1-2.5.98H641.4a3.339,3.339,0,0,0-2.45,1.07,3.391,3.391,0,0,0-1.05,2.47v2.23a3.343,3.343,0,0,0,1.05,2.52,3.4,3.4,0,0,0,2.45,1.01h20.163A3.479,3.479,0,0,0,664.037,1124.38Zm24.763,24.5a3.18,3.18,0,0,0-2.4,1.07,3.474,3.474,0,0,0-1,2.47v2.23a3.491,3.491,0,0,0,1,2.47,3.17,3.17,0,0,0,2.4,1.06h27.3a3.641,3.641,0,0,1,2.6,1.05,3.4,3.4,0,0,1,1.1,2.55v25.4a3.23,3.23,0,0,1-1.1,2.5,3.724,3.724,0,0,1-2.6,1H694.8a3.418,3.418,0,0,0-3.5,3.5v2.3a3.428,3.428,0,0,0,1,2.45,3.308,3.308,0,0,0,2.5,1.05h23.1a9.11,9.11,0,0,0,3.3-.7,7.119,7.119,0,0,0,2.8-1.8l2.4-2.6a6.4,6.4,0,0,0,1.8-2.65,8.555,8.555,0,0,0,.7-3.15v-27.3a3.391,3.391,0,0,1,1.1-2.55,3.523,3.523,0,0,1,2.5-1.05h16a3.283,3.283,0,0,0,2.5-1.06,3.5,3.5,0,0,0,1-2.47v-2.23a3.479,3.479,0,0,0-1-2.47,3.292,3.292,0,0,0-2.5-1.07h-16a3.749,3.749,0,0,1-3.6-3.59v-24.42a3.268,3.268,0,0,1,1.1-2.44,3.523,3.523,0,0,1,2.5-1.05h16a3.35,3.35,0,0,0,2.5-1.01,3.43,3.43,0,0,0,1-2.52v-2.33a3.354,3.354,0,0,0-1-2.43,3.388,3.388,0,0,0-2.5-1.01H688.8a3.268,3.268,0,0,0-2.4,1.01,3.35,3.35,0,0,0-1,2.43v2.33a3.426,3.426,0,0,0,1,2.52,3.23,3.23,0,0,0,2.4,1.01h27.3a3.641,3.641,0,0,1,2.6,1.05,3.272,3.272,0,0,1,1.1,2.44v24.42a3.447,3.447,0,0,1-1.1,2.5,3.559,3.559,0,0,1-2.6,1.09H688.8Z" transform="translate(-598.906 -1108.09)"/>
</svg>
