<svg xmlns="http://www.w3.org/2000/svg" width="326.282" height="91.813" viewBox="0 0 326.282 91.813">
  <metadata><?xpacket begin="﻿" id="W5M0MpCehiHzreSzNTczkc9d"?>
<x:xmpmeta xmlns:x="adobe:ns:meta/" x:xmptk="Adobe XMP Core 5.6-c142 79.160924, 2017/07/13-01:06:39        ">
   <rdf:RDF xmlns:rdf="http://www.w3.org/1999/02/22-rdf-syntax-ns#">
      <rdf:Description rdf:about=""/>
   </rdf:RDF>
</x:xmpmeta>
                                                                                                    
                                                                                                    
                                                                                                    
                                                                                                    
                                                                                                    
                                                                                                    
                                                                                                    
                                                                                                    
                                                                                                    
                                                                                                    
                                                                                                    
                                                                                                    
                                                                                                    
                                                                                                    
                                                                                                    
                                                                                                    
                                                                                                    
                                                                                                    
                                                                                                    
                                                                                                    
                           
<?xpacket end="w"?></metadata>
<defs>
    <style>
      .cls-1 {
        fill: #fff;
        fill-rule: evenodd;
      }
    </style>
  </defs>
  <path id="选择关卡" class="cls-1" d="M547.3,909.529a1.17,1.17,0,0,1-1,.795,1.241,1.241,0,0,0-1,1,6.7,6.7,0,0,0-.4,2.489V916.1a4.267,4.267,0,0,0,.7,2.439,1.972,1.972,0,0,0,1.611,1.045,5.774,5.774,0,0,0,2.514-.7,9.624,9.624,0,0,0,2.514-1.8l1.41-1.6a3.657,3.657,0,0,1,5.229,0l1.811,1.7a9.345,9.345,0,0,0,2.917,1.7,9.094,9.094,0,0,0,3.219.7H608.6a3.5,3.5,0,0,0,3.6-3.5v-2.3a3.393,3.393,0,0,0-1-2.5,3.517,3.517,0,0,0-2.6-1H569.645a9.1,9.1,0,0,1-2.968-.5,8.392,8.392,0,0,1-2.263-1.1q-0.705-.8-0.2-1.25a3.171,3.171,0,0,1,2.013-.45h1.911a8.041,8.041,0,0,0,3.219-.75,9.2,9.2,0,0,0,2.817-1.85l2.514-2.5a8.138,8.138,0,0,0,1.709-2.7,8.393,8.393,0,0,0,.705-3.2v-17.6a3.268,3.268,0,0,1,1.078-2.5,3.515,3.515,0,0,1,2.453-1h8.436a3.466,3.466,0,0,1,3.433,3.5v17.6a8.418,8.418,0,0,0,.7,3.2,8.142,8.142,0,0,0,1.7,2.7l2.5,2.5a8.866,8.866,0,0,0,2.9,1.85,8.47,8.47,0,0,0,3.2.75h2.8a3.451,3.451,0,0,0,2.6-1.039,3.509,3.509,0,0,0,1-2.522v-2.178a3.509,3.509,0,0,0-1-2.522,3.451,3.451,0,0,0-2.6-1.039h-1a3.426,3.426,0,0,1-3.5-3.516V878.4a3.426,3.426,0,0,1,3.5-3.516h1a3.43,3.43,0,0,0,2.6-1.05,3.33,3.33,0,0,0,1-2.35v-2.4a3.4,3.4,0,0,0-1-2.5,3.521,3.521,0,0,0-2.6-1H597.4a3.426,3.426,0,0,1-2.6-1.05,3.56,3.56,0,0,1-1-2.55v-8.4a3.391,3.391,0,0,1,1-2.5,3.518,3.518,0,0,1,2.6-1h10.9a3.409,3.409,0,0,0,2.6-1.061,3.5,3.5,0,0,0,1-2.476V844.22a3.332,3.332,0,0,0-1-2.427,3.5,3.5,0,0,0-2.6-1.011H597.4a3.357,3.357,0,0,1-2.6-1.091,3.57,3.57,0,0,1-1-2.481v-5.955a3.223,3.223,0,0,0-1.089-2.481,3.571,3.571,0,0,0-2.472-.992h-2.276a3.4,3.4,0,0,0-2.424.992,3.287,3.287,0,0,0-1.039,2.481v5.955a3.5,3.5,0,0,1-1.042,2.481,3.258,3.258,0,0,1-2.431,1.091h-6.354a3.352,3.352,0,0,1-2.531-1.1,3.535,3.535,0,0,1-1.042-2.5v-4.1a3.456,3.456,0,0,0-1.062-2.55,3.412,3.412,0,0,0-2.475-1.05h-2.325a3.248,3.248,0,0,0-2.427,1.05,3.537,3.537,0,0,0-1.011,2.55v6.9a8.269,8.269,0,0,0,.75,3.177,7.861,7.861,0,0,0,1.85,2.778l2,1.718a7.715,7.715,0,0,0,2.9,1.771,9.72,9.72,0,0,0,3.3.656H581a3.444,3.444,0,0,1,2.45,1,3.31,3.31,0,0,1,1.05,2.5v8.4a3.472,3.472,0,0,1-1.05,2.55,3.358,3.358,0,0,1-2.45,1.05H565.2a3.274,3.274,0,0,0-2.4,1,3.391,3.391,0,0,0-1,2.5v2.4a3.308,3.308,0,0,0,1.013,2.35,3.255,3.255,0,0,0,2.431,1.05h1.012a3.5,3.5,0,0,1,2.48,1A3.314,3.314,0,0,1,569.8,878.4v15.768a3.308,3.308,0,0,1-1.064,2.511,3.494,3.494,0,0,1-2.48,1h-1.012a3.261,3.261,0,0,0-2.431,1.045,3.516,3.516,0,0,0-1.013,2.539v1.393a1.618,1.618,0,0,1-.75,1.693,1.581,1.581,0,0,1-1.65-.5,8.392,8.392,0,0,1-1.65-2.638,7.879,7.879,0,0,1-.75-3.036v-50.5a3.564,3.564,0,0,0-1-2.55,3.2,3.2,0,0,0-2.4-1.05h-6.4a1.958,1.958,0,0,0-1.6,1.05,4.49,4.49,0,0,0-.7,2.55v2.2a6.854,6.854,0,0,0,.4,2.45,1.271,1.271,0,0,0,1,1.05,1.273,1.273,0,0,1,1,1.05,6.88,6.88,0,0,1,.4,2.45v50.855A3.957,3.957,0,0,1,547.3,909.529Zm1.7-71.547a3.278,3.278,0,0,0,4.9,0l1.6-1.5a3.506,3.506,0,0,0,0-5.1l-1.6-1.5a2.945,2.945,0,0,0-2.4-1.1,3.238,3.238,0,0,0-2.5,1.1l-1.7,1.5a3.751,3.751,0,0,0,0,5.1Zm145.48,51.6a3.337,3.337,0,0,0,2.514-1.05,3.432,3.432,0,0,0,1.006-2.45v-2.2a3.556,3.556,0,0,0-1-2.55,3.323,3.323,0,0,0-2.508-1.05H684.248a3.638,3.638,0,0,1-2.511-1,3.124,3.124,0,0,1-1.1-2.4,3.615,3.615,0,0,0-1-2.5,3.149,3.149,0,0,0-2.408-1.1h-2.31a3.15,3.15,0,0,0-2.409,1.1,3.609,3.609,0,0,0-1,2.5,3.131,3.131,0,0,1-1.1,2.4,3.615,3.615,0,0,1-2.5,1H657.7a3.308,3.308,0,0,0-2.5,1.05,3.56,3.56,0,0,0-1,2.55v2.2a3.438,3.438,0,0,0,1,2.45,3.308,3.308,0,0,0,2.5,1.05h10.2a3.541,3.541,0,0,1,2.5,1.041,3.244,3.244,0,0,1,1.1,2.428v4.162a3.244,3.244,0,0,1-1.1,2.428,3.541,3.541,0,0,1-2.5,1.041H657.7a3.291,3.291,0,0,0-2.5,1.063,3.613,3.613,0,0,0-1,2.576v2.224a3.328,3.328,0,0,0,1,2.426,3.372,3.372,0,0,0,2.5,1.011h10.2a3.768,3.768,0,0,1,3.6,3.6v2.5a3.44,3.44,0,0,0,1,2.45,3.2,3.2,0,0,0,2.4,1.05h2.3a3.2,3.2,0,0,0,2.4-1.05,3.444,3.444,0,0,0,1-2.45v-2.5a3.437,3.437,0,0,1,1.106-2.5,3.472,3.472,0,0,1,2.514-1.1h10.26a3.4,3.4,0,0,0,2.514-1.011A3.322,3.322,0,0,0,698,906.545v-2.224a3.606,3.606,0,0,0-1.006-2.576,3.32,3.32,0,0,0-2.514-1.063H684.22a3.57,3.57,0,0,1-2.514-1.041,3.236,3.236,0,0,1-1.106-2.428v-4.162a3.236,3.236,0,0,1,1.106-2.428,3.57,3.57,0,0,1,2.514-1.041h10.26Zm-62.23,22a3.579,3.579,0,0,0-.85,2.4v2.1a3.425,3.425,0,0,0,1.006,2.45,3.225,3.225,0,0,0,2.416,1.05h0.806a8.718,8.718,0,0,0,3.17-.7,9.436,9.436,0,0,0,2.869-1.7l2.316-2.3a9.124,9.124,0,0,0,1.862-2.8,7.916,7.916,0,0,0,.755-3.2v-9.9a4.808,4.808,0,0,1,.686-2.6,2.03,2.03,0,0,1,1.764-1.1,2.064,2.064,0,0,0,1.764-1,4.146,4.146,0,0,0,.686-2.4v-2.3a4.389,4.389,0,0,0-.686-2.45,2.045,2.045,0,0,0-1.764-1.05,2.043,2.043,0,0,1-1.764-1.05,4.556,4.556,0,0,1-.686-2.55v-32.5a4.373,4.373,0,0,1,.686-2.45,2.043,2.043,0,0,1,1.764-1.05,2.045,2.045,0,0,0,1.764-1.05,4.387,4.387,0,0,0,.686-2.45v-2.3a4.15,4.15,0,0,0-.686-2.4,2.066,2.066,0,0,0-1.764-1,2.043,2.043,0,0,1-1.764-1.05,4.371,4.371,0,0,1-.686-2.45v-2.6a3.183,3.183,0,0,0-1.063-2.4,3.5,3.5,0,0,0-2.475-1h-2.225a3.447,3.447,0,0,0-2.526,1,3.253,3.253,0,0,0-1.011,2.4v2.6a3.781,3.781,0,0,1-.85,2.45,2.652,2.652,0,0,1-2.15,1.05,2.594,2.594,0,0,0-2.05,1.011,3.648,3.648,0,0,0-.85,2.427v2.325a3.844,3.844,0,0,0,.85,2.476,2.547,2.547,0,0,0,2.05,1.061,2.656,2.656,0,0,1,2.15,1.045,3.754,3.754,0,0,1,.85,2.438V882.4a3.9,3.9,0,0,1-.85,2.537,2.655,2.655,0,0,1-2.15,1.044,2.549,2.549,0,0,0-2.05,1.063,3.839,3.839,0,0,0-.85,2.475v2.325a3.644,3.644,0,0,0,.85,2.426,2.588,2.588,0,0,0,2.05,1.011,2.612,2.612,0,0,1,2.15,1.1,4.133,4.133,0,0,1,.85,2.6v8.2a3.588,3.588,0,0,1-.85,2.4,2.7,2.7,0,0,1-2.15,1A2.6,2.6,0,0,0,632.25,911.582Zm65.75-80.3a3.426,3.426,0,0,0-1.011-2.45,3.366,3.366,0,0,0-2.527-1.05H657.7a3.308,3.308,0,0,0-2.5,1.05,3.44,3.44,0,0,0-1,2.45v2.4a3.27,3.27,0,0,0,1,2.4,3.39,3.39,0,0,0,2.5,1h27.4a3.564,3.564,0,0,1,2.55,1,3.31,3.31,0,0,1,1.05,2.5v1.6a6.319,6.319,0,0,1-.85,3.05,6.147,6.147,0,0,1-2.15,2.35l-6.7,4.2a4.727,4.727,0,0,1-2.85.8,5.694,5.694,0,0,1-3.05-.8l-6.7-4.2a6.888,6.888,0,0,1-2-2.05,4.4,4.4,0,0,1-.8-2.35,1.955,1.955,0,0,0-1.1-1.6,4.565,4.565,0,0,0-2.5-.7h-2.3a3.308,3.308,0,0,0-2.5,1.05,3.44,3.44,0,0,0-1,2.45v2.6a5.9,5.9,0,0,0,.9,2.95,6.924,6.924,0,0,0,2.1,2.35l7.5,5a2.282,2.282,0,0,1,1.1,1.85,2.251,2.251,0,0,1-1.2,1.85l-0.8.4a14.884,14.884,0,0,1-3.1,1.4,10.277,10.277,0,0,1-3.2.6,3.041,3.041,0,0,0-2.35,1.05,3.535,3.535,0,0,0-.95,2.45v2.2a3.438,3.438,0,0,0,1,2.45,3.308,3.308,0,0,0,2.5,1.05h2.6a12.893,12.893,0,0,0,3.45-.55,11.126,11.126,0,0,0,3.15-1.35l6.2-4.1a6.044,6.044,0,0,1,3.05-.8,5.02,5.02,0,0,1,2.85.8l6.2,4.1a11.1,11.1,0,0,0,3.158,1.35,13.03,13.03,0,0,0,3.476.55h2.628a3.366,3.366,0,0,0,2.527-1.05,3.425,3.425,0,0,0,1.011-2.45v-2.2a3.649,3.649,0,0,0-.9-2.45,2.894,2.894,0,0,0-2.3-1.05,10.272,10.272,0,0,1-3.2-.6,14.861,14.861,0,0,1-3.1-1.4l-0.8-.4a2.026,2.026,0,0,1,0-3.7l7.4-5a5.8,5.8,0,0,0,2.1-2.35,6.446,6.446,0,0,0,.8-2.95v-15.7Zm23.3,46a3.257,3.257,0,0,0-2.4,1.011,3.45,3.45,0,0,0-1,2.527v2.325a3.325,3.325,0,0,0,1,2.426,3.25,3.25,0,0,0,2.4,1.011h20.9a1.785,1.785,0,0,1,1.8.847,1.866,1.866,0,0,1-.4,1.941L730.3,907.4a7.293,7.293,0,0,1-2.45,1.992,6.638,6.638,0,0,1-3.15.9h-3.2a3.366,3.366,0,0,0-2.5,1.011,3.445,3.445,0,0,0-1,2.527v2.225a3.5,3.5,0,0,0,1,2.476,3.305,3.305,0,0,0,2.5,1.061h7.111a7.392,7.392,0,0,0,3.1-.8,6.79,6.79,0,0,0,2.605-2l14.422-18.1a2.705,2.705,0,0,1,2.153-1.1,3.3,3.3,0,0,1,2.353,1.1l14.422,18.1a7.652,7.652,0,0,0,5.609,2.8H780.6a3.352,3.352,0,0,0,2.453-1.061,3.418,3.418,0,0,0,1.052-2.476V913.82a3.361,3.361,0,0,0-1.05-2.527,3.418,3.418,0,0,0-2.45-1.011h-3.4a6.486,6.486,0,0,1-3.05-.9,7.283,7.283,0,0,1-2.45-1.992L758.4,889.37a1.668,1.668,0,0,1-.55-1.941,1.9,1.9,0,0,1,1.85-.847h20.9a3.418,3.418,0,0,0,2.45-1.011,3.248,3.248,0,0,0,1.05-2.426V880.82a3.366,3.366,0,0,0-1.05-2.527,3.426,3.426,0,0,0-2.45-1.011H759a3.4,3.4,0,0,1-2.5-.994,3.244,3.244,0,0,1-1-2.387l0.1-11.138a3.364,3.364,0,0,1,1-2.486,3.405,3.405,0,0,1,2.5-1h21.5a3.339,3.339,0,0,0,2.45-1.061,3.412,3.412,0,0,0,1.05-2.476V853.52a3.368,3.368,0,0,0-1.052-2.527,3.431,3.431,0,0,0-2.453-1.011h-59.29a3.268,3.268,0,0,0-2.4,1.011,3.447,3.447,0,0,0-1,2.527v2.225a3.5,3.5,0,0,0,1,2.476,3.178,3.178,0,0,0,2.4,1.061h21.4a3.407,3.407,0,0,1,2.5,1,3.368,3.368,0,0,1,1,2.486V873.9a3.248,3.248,0,0,1-1,2.387,3.4,3.4,0,0,1-2.5.994H721.3Zm-3.4-35.8a3.368,3.368,0,0,0,1.011,2.5,3.325,3.325,0,0,0,2.426,1H741.5a3.591,3.591,0,0,0,2.5-1.011,3.288,3.288,0,0,0,1.1-2.526V839.22a3.336,3.336,0,0,0-1.1-2.475,3.507,3.507,0,0,0-2.5-1.063H730.6a3.287,3.287,0,0,1-2.4-.987,3.212,3.212,0,0,1-1-2.371V831.14a3.2,3.2,0,0,0-1.011-2.37,3.476,3.476,0,0,0-2.527-.988h-2.325a3.329,3.329,0,0,0-2.426,1,3.253,3.253,0,0,0-1.011,2.4v10.3Zm65.137,2.5a3.291,3.291,0,0,0,1.063-2.5v-10.3a3.183,3.183,0,0,0-1.063-2.4,3.5,3.5,0,0,0-2.475-1h-2.225a3.469,3.469,0,0,0-2.526.988,3.192,3.192,0,0,0-1.011,2.37v1.184a3.22,3.22,0,0,1-1,2.371,3.412,3.412,0,0,1-2.5.987H760.4a3.338,3.338,0,0,0-2.45,1.063,3.408,3.408,0,0,0-1.05,2.475v2.225a3.361,3.361,0,0,0,1.05,2.526,3.415,3.415,0,0,0,2.45,1.011h20.162A3.493,3.493,0,0,0,783.037,843.982Zm37.763,72.1a3.589,3.589,0,0,0,3.5,3.5h2.3a3.31,3.31,0,0,0,2.5-1.05,3.448,3.448,0,0,0,1-2.45v-38.9a3.44,3.44,0,0,1,1-2.45,3.307,3.307,0,0,1,2.5-1.05h34.1a3.253,3.253,0,0,0,2.4-1.011,3.332,3.332,0,0,0,1-2.426V867.92a3.458,3.458,0,0,0-1-2.527,3.26,3.26,0,0,0-2.4-1.011H833.6a3.4,3.4,0,0,1-2.5-.994,3.358,3.358,0,0,1-1-2.486v-9.84a3.411,3.411,0,0,1,1-2.436,3.316,3.316,0,0,1,2.5-1.044h34.1a3.181,3.181,0,0,0,2.4-1.061,3.505,3.505,0,0,0,1-2.476V841.82a3.458,3.458,0,0,0-1-2.527,3.26,3.26,0,0,0-2.4-1.011H833.6a3.319,3.319,0,0,1-2.5-1.039,3.511,3.511,0,0,1-1-2.527v-3.567a3.234,3.234,0,0,0-1-2.376,3.411,3.411,0,0,0-2.5-.991h-2.3a3.443,3.443,0,0,0-2.45,1,3.187,3.187,0,0,0-1.05,2.393v29.718a3.413,3.413,0,0,1-3.5,3.491h-9.5a3.254,3.254,0,0,0-2.4,1.011,3.45,3.45,0,0,0-1,2.527v2.325a3.325,3.325,0,0,0,1,2.426,3.246,3.246,0,0,0,2.4,1.011h9.5a3.31,3.31,0,0,1,2.5,1.05,3.448,3.448,0,0,1,1,2.45v38.9Zm22.437-33.3a3.359,3.359,0,0,0-2.526,1.05,3.418,3.418,0,0,0-1.011,2.45v9.3a8.51,8.51,0,0,0,.708,3.15,8.359,8.359,0,0,0,1.818,2.85l2.325,2.5a9.512,9.512,0,0,0,2.88,1.7,8.95,8.95,0,0,0,3.269.7h17.1a3.414,3.414,0,0,0,3.4-3.4v-2.3a3.569,3.569,0,0,0-1-2.55,3.2,3.2,0,0,0-2.4-1.05H852.6a3.56,3.56,0,0,1-2.55-1,3.308,3.308,0,0,1-1.05-2.5v-7.4a3.426,3.426,0,0,0-1.011-2.45,3.366,3.366,0,0,0-2.527-1.05h-2.225Z" transform="translate(-544.906 -827.781)"/>
</svg>
