<svg xmlns="http://www.w3.org/2000/svg" width="153.18" height="91.91" viewBox="0 0 153.18 91.91">
  <metadata><?xpacket begin="﻿" id="W5M0MpCehiHzreSzNTczkc9d"?>
<x:xmpmeta xmlns:x="adobe:ns:meta/" x:xmptk="Adobe XMP Core 5.6-c142 79.160924, 2017/07/13-01:06:39        ">
   <rdf:RDF xmlns:rdf="http://www.w3.org/1999/02/22-rdf-syntax-ns#">
      <rdf:Description rdf:about=""/>
   </rdf:RDF>
</x:xmpmeta>
                                                                                                    
                                                                                                    
                                                                                                    
                                                                                                    
                                                                                                    
                                                                                                    
                                                                                                    
                                                                                                    
                                                                                                    
                                                                                                    
                                                                                                    
                                                                                                    
                                                                                                    
                                                                                                    
                                                                                                    
                                                                                                    
                                                                                                    
                                                                                                    
                                                                                                    
                                                                                                    
                           
<?xpacket end="w"?></metadata>
<defs>
    <style>
      .cls-1 {
        fill: #fff;
        fill-rule: evenodd;
      }
    </style>
  </defs>
  <path id="登录" class="cls-1" d="M1521.7,1146.3a3.208,3.208,0,0,0,2.4-1.05,3.433,3.433,0,0,0,1-2.45v-18.7a3.369,3.369,0,0,0-1-2.5,3.271,3.271,0,0,0-2.4-1h-59.9a3.271,3.271,0,0,0-2.4,1,3.369,3.369,0,0,0-1,2.5v18.7a3.655,3.655,0,0,0,.9,2.45,2.9,2.9,0,0,0,2.3,1.05,3.245,3.245,0,0,1,3.3,3.3,2.786,2.786,0,0,1-.95,2.15,3.427,3.427,0,0,1-2.35.85,2.95,2.95,0,0,0-2.3,1,3.441,3.441,0,0,0-.9,2.4v1.5a3.433,3.433,0,0,0,1,2.45,3.208,3.208,0,0,0,2.4,1.05h59.9a3.234,3.234,0,0,0,2.4-1.04,3.364,3.364,0,0,0,1-2.42v-1.48a3.174,3.174,0,0,0-1-2.37,3.262,3.262,0,0,0-2.4-.99h-0.5a3.545,3.545,0,0,1-2.4-.87,2.736,2.736,0,0,1-1-2.18,3.171,3.171,0,0,1,1-2.39,3.354,3.354,0,0,1,2.4-.96h0.5Zm-23.9-77.1a3.384,3.384,0,0,0-2.5,1,3.239,3.239,0,0,0-1,2.4v29.1a3.384,3.384,0,0,0,1,2.5,3.423,3.423,0,0,0,2.5,1h23.5a3.59,3.59,0,0,0,2.55-1,3.315,3.315,0,0,0,1.05-2.5v-2.4a3.177,3.177,0,0,0-1.05-2.4,3.548,3.548,0,0,0-2.55-1H1507a5.38,5.38,0,0,1-2.4-.5,1.491,1.491,0,0,1-1-1.3,1.563,1.563,0,0,1,1-1.35,4.892,4.892,0,0,1,2.4-.55h14.3a3.59,3.59,0,0,0,2.55-1,3.315,3.315,0,0,0,1.05-2.5v-4.8a3.3,3.3,0,0,0-1.05-2.5,3.548,3.548,0,0,0-2.55-1h-2.2a5.556,5.556,0,0,0-2.45.5,1.453,1.453,0,0,0-1.05,1.2,1.568,1.568,0,0,1-1.05,1.25,5.3,5.3,0,0,1-2.45.55H1507a3.475,3.475,0,0,1-2.4-.9,3.145,3.145,0,0,1,0-4.6,3.475,3.475,0,0,1,2.4-.9h14.3a3.59,3.59,0,0,0,2.55-1,3.208,3.208,0,0,0,1.05-2.4v-1.5a3.177,3.177,0,0,0-1.05-2.4,3.548,3.548,0,0,0-2.55-1h-23.5Zm-36,26.7a3.414,3.414,0,0,0-3.4,3.4v2.4a3.384,3.384,0,0,0,1,2.5,3.31,3.31,0,0,0,2.4,1h23.7a3.35,3.35,0,0,0,2.35-1,3.315,3.315,0,0,0,1.05-2.5v-29.1a3.177,3.177,0,0,0-1.05-2.4,3.308,3.308,0,0,0-2.35-1h-23.7a3.414,3.414,0,0,0-3.4,3.4v1.5a3.271,3.271,0,0,0,1,2.4,3.31,3.31,0,0,0,2.4,1h14.3a3.6,3.6,0,0,1,2.5.9,3.145,3.145,0,0,1,0,4.6,3.6,3.6,0,0,1-2.5.9h-4.9a5.223,5.223,0,0,1-2.5-.55,1.549,1.549,0,0,1-1-1.25,1.432,1.432,0,0,0-1-1.2,5.487,5.487,0,0,0-2.5-.5h-2.4a3.271,3.271,0,0,0-2.4,1,3.369,3.369,0,0,0-1,2.5v4.8a3.384,3.384,0,0,0,1,2.5,3.31,3.31,0,0,0,2.4,1h14.3a5.109,5.109,0,0,1,2.5.55,1.563,1.563,0,0,1,1,1.35,1.491,1.491,0,0,1-1,1.3,5.621,5.621,0,0,1-2.5.5h-14.3Zm63.3,16.55a3.381,3.381,0,0,0-1-2.42,3.224,3.224,0,0,0-2.4-1.03h-59.9a3.224,3.224,0,0,0-2.4,1.03,3.381,3.381,0,0,0-1,2.42v1.29a3.478,3.478,0,0,0,1,2.52,3.234,3.234,0,0,0,2.4,1.04h59.9a3.234,3.234,0,0,0,2.4-1.04,3.478,3.478,0,0,0,1-2.52v-1.29Zm-12.8,16.45a3.354,3.354,0,0,1,2.5,1.01,3.421,3.421,0,0,1,1,2.53v2.02a3.453,3.453,0,0,1-1,2.53,3.393,3.393,0,0,1-2.5,1.01h-41.1a3.393,3.393,0,0,1-2.5-1.01,3.453,3.453,0,0,1-1-2.53v-2.02a3.421,3.421,0,0,1,1-2.53,3.354,3.354,0,0,1,2.5-1.01h41.1Zm-4.8,22.93a3.678,3.678,0,0,1-2.5.87h-27.4a3.545,3.545,0,0,1-2.4-.87,2.736,2.736,0,0,1-1-2.18,3.171,3.171,0,0,1,1-2.39,3.354,3.354,0,0,1,2.4-.96H1505a3.473,3.473,0,0,1,2.5.96,3.171,3.171,0,0,1,1,2.39A2.736,2.736,0,0,1,1507.5,1151.83Zm104.1-34.73a3.369,3.369,0,0,0-1-2.5,3.271,3.271,0,0,0-2.4-1h-2.3a3.548,3.548,0,0,0-2.55,1,3.3,3.3,0,0,0-1.05,2.5v0.1a3.433,3.433,0,0,1-1,2.45,3.315,3.315,0,0,1-2.5,1.05h-4.7a3.354,3.354,0,0,0-2.5,1.01,3.3,3.3,0,0,0-1,2.42v2.43a3.338,3.338,0,0,0,1,2.43,3.393,3.393,0,0,0,2.5,1.01h6.6a8.591,8.591,0,0,0,3.15-.71,8.275,8.275,0,0,0,2.85-1.82l2.5-2.43a9.538,9.538,0,0,0,1.7-2.83,8.436,8.436,0,0,0,.7-3.21v-1.9Zm-63.3-3.5a3.271,3.271,0,0,0-2.4,1,3.369,3.369,0,0,0-1,2.5v1.9a8.436,8.436,0,0,0,.7,3.21,9.538,9.538,0,0,0,1.7,2.83l2.6,2.43a7.3,7.3,0,0,0,2.75,1.82,8.591,8.591,0,0,0,3.15.71h6.6a3.281,3.281,0,0,0,2.4-1.01,3.338,3.338,0,0,0,1-2.43v-2.43a3.3,3.3,0,0,0-1-2.42,3.242,3.242,0,0,0-2.4-1.01h-4.7a3.315,3.315,0,0,1-2.5-1.05,3.433,3.433,0,0,1-1-2.45v-0.1a3.418,3.418,0,0,0-3.5-3.5h-2.4Zm11.4,42.3a7.056,7.056,0,0,0,1.7-2.65,8.558,8.558,0,0,0,.7-3.15v-11a3.416,3.416,0,0,0-1-2.45,3.208,3.208,0,0,0-2.4-1.05h-2.4a3.589,3.589,0,0,0-3.5,3.5v9.1a3.384,3.384,0,0,1-1,2.5,3.423,3.423,0,0,1-2.5,1h-1a3.271,3.271,0,0,0-2.4,1,3.369,3.369,0,0,0-1,2.5v2.3a3.433,3.433,0,0,0,1,2.45,3.208,3.208,0,0,0,2.4,1.05h2.9a8.948,8.948,0,0,0,3.25-.7,8.391,8.391,0,0,0,2.85-1.8Zm51.9-51.12a5.621,5.621,0,0,0-.5-2.5,1.493,1.493,0,0,0-1.3-1.01,1.585,1.585,0,0,1-1.35-1,5.109,5.109,0,0,1-.55-2.5V1072.5a3.271,3.271,0,0,0-1-2.4,3.384,3.384,0,0,0-2.5-1h-56.1a3.242,3.242,0,0,0-2.4,1.01,3.3,3.3,0,0,0-1,2.42v2.33a3.453,3.453,0,0,0,1,2.53,3.281,3.281,0,0,0,2.4,1.01h46.9a3.281,3.281,0,0,1,2.4,1.01,3.344,3.344,0,0,1,1,2.44,3.149,3.149,0,0,1-1,2.38,3.322,3.322,0,0,1-2.4.97h-46.9a3.2,3.2,0,0,0-2.4,1.04,3.364,3.364,0,0,0-1,2.42v2.28a3.547,3.547,0,0,0,1,2.47,3.177,3.177,0,0,0,2.4,1.09h46.9a3.394,3.394,0,0,1,2.4,5.8,3.31,3.31,0,0,1-2.4,1h-46.9a3.271,3.271,0,0,0-2.4,1,3.369,3.369,0,0,0-1,2.5v2.3a3.433,3.433,0,0,0,1,2.45,3.208,3.208,0,0,0,2.4,1.05h21.4a3.384,3.384,0,0,1,2.5,1,3.239,3.239,0,0,1,1,2.4v34.2a3.384,3.384,0,0,1-1,2.5,3.423,3.423,0,0,1-2.5,1,3.418,3.418,0,0,0-3.5,3.5v2.3a3.433,3.433,0,0,0,1,2.45,3.315,3.315,0,0,0,2.5,1.05h1.9a9.325,9.325,0,0,0,6-2.5l2.5-2.6a7.056,7.056,0,0,0,1.7-2.65,8.558,8.558,0,0,0,.7-3.15V1114a3.239,3.239,0,0,1,1-2.4,3.384,3.384,0,0,1,2.5-1h22.2a3.208,3.208,0,0,0,2.4-1.05,3.472,3.472,0,0,0,1-2.46v-2.31Zm-3.4,56.22a3.208,3.208,0,0,0,2.4-1.05,3.433,3.433,0,0,0,1-2.45v-2.3a3.369,3.369,0,0,0-1-2.5,3.271,3.271,0,0,0-2.4-1h-1.1a3.31,3.31,0,0,1-2.4-1,3.384,3.384,0,0,1-1-2.5v-9.1a3.416,3.416,0,0,0-1-2.45,3.208,3.208,0,0,0-2.4-1.05h-2.5a3.208,3.208,0,0,0-2.4,1.05,3.416,3.416,0,0,0-1,2.45v11a8.558,8.558,0,0,0,.7,3.15,7.056,7.056,0,0,0,1.7,2.65l2.4,2.6a9.325,9.325,0,0,0,6,2.5h3Z" transform="translate(-1458.41 -1069.09)"/>
</svg>
