<svg xmlns="http://www.w3.org/2000/svg" width="325.78" height="91.875" viewBox="0 0 325.78 91.875">
  <metadata><?xpacket begin="﻿" id="W5M0MpCehiHzreSzNTczkc9d"?>
<x:xmpmeta xmlns:x="adobe:ns:meta/" x:xmptk="Adobe XMP Core 5.6-c142 79.160924, 2017/07/13-01:06:39        ">
   <rdf:RDF xmlns:rdf="http://www.w3.org/1999/02/22-rdf-syntax-ns#">
      <rdf:Description rdf:about=""/>
   </rdf:RDF>
</x:xmpmeta>
                                                                                                    
                                                                                                    
                                                                                                    
                                                                                                    
                                                                                                    
                                                                                                    
                                                                                                    
                                                                                                    
                                                                                                    
                                                                                                    
                                                                                                    
                                                                                                    
                                                                                                    
                                                                                                    
                                                                                                    
                                                                                                    
                                                                                                    
                                                                                                    
                                                                                                    
                                                                                                    
                           
<?xpacket end="w"?></metadata>
<defs>
    <style>
      .cls-1 {
        fill: #fff;
        fill-rule: evenodd;
      }
    </style>
  </defs>
  <path id="积分排名" class="cls-1" d="M1246.7,354.465a8.015,8.015,0,0,0,1.7-2.8,8.907,8.907,0,0,0,.7-3.2v-34.6a3.342,3.342,0,0,0-1.05-2.471,3.508,3.508,0,0,0-2.55-1.029h-25.7a3.4,3.4,0,0,0-2.45,1.029,3.342,3.342,0,0,0-1.05,2.471v42a3.589,3.589,0,0,0,3.5,3.5h18.4a8.487,8.487,0,0,0,3.2-.75,9.936,9.936,0,0,0,2.9-1.75Zm-60.9-18.7a3.143,3.143,0,0,0-2.4,1.1,3.6,3.6,0,0,0-1,2.5v2.2a3.426,3.426,0,0,0,1,2.45,3.208,3.208,0,0,0,2.4,1.05h4.1a3.315,3.315,0,0,1,2.5,1.05,3.428,3.428,0,0,1,1,2.45v50.2a3.429,3.429,0,0,0,1,2.45,3.315,3.315,0,0,0,2.5,1.05h2.4a3.208,3.208,0,0,0,2.4-1.05,3.429,3.429,0,0,0,1-2.45v-50.2a3.428,3.428,0,0,1,1-2.45,3.315,3.315,0,0,1,2.5-1.05h4.3a3.589,3.589,0,0,0,3.5-3.5v-2.2a3.526,3.526,0,0,0-1.05-2.5,3.293,3.293,0,0,0-2.45-1.1h-4.3a3.418,3.418,0,0,1-3.5-3.5v-4.8a4.531,4.531,0,0,1,.7-2.5,2.011,2.011,0,0,1,1.7-1.1,5.128,5.128,0,0,0,2.45-.755,7.693,7.693,0,0,0,2.25-1.864l1.9-2.116a8.828,8.828,0,0,0,1.65-2.77,8.181,8.181,0,0,0,.65-2.872,2.823,2.823,0,0,0-1.05-2.216,3.641,3.641,0,0,0-2.45-.907h-1.3a4.664,4.664,0,0,0-2.55.665,1.9,1.9,0,0,0-1.05,1.588,1.625,1.625,0,0,1-1.05,1.384,5.121,5.121,0,0,1-2.45.563h-16.3a3.208,3.208,0,0,0-2.4,1.05,3.548,3.548,0,0,0-1,2.55v2.3a3.414,3.414,0,0,0,3.4,3.4h4.1a3.244,3.244,0,0,1,2.5,1.1,3.6,3.6,0,0,1,1,2.5v4.8a3.418,3.418,0,0,1-3.5,3.5h-4.1Zm43.37,14.3a3.443,3.443,0,0,1-2.53-1.05,3.386,3.386,0,0,1-1.04-2.45v-23.4a3.387,3.387,0,0,1,1.04-2.45,3.443,3.443,0,0,1,2.53-1.05h7.06a3.443,3.443,0,0,1,2.53,1.05,3.387,3.387,0,0,1,1.04,2.45v23.4a3.386,3.386,0,0,1-1.04,2.45,3.443,3.443,0,0,1-2.53,1.05h-7.06Zm-19.17,52.1a3.208,3.208,0,0,0,2.4-1.05,3.429,3.429,0,0,0,1-2.45v-43.4a3.428,3.428,0,0,0-1-2.45,3.208,3.208,0,0,0-2.4-1.05h-0.5a3.589,3.589,0,0,0-3.5,3.5v43.4a3.589,3.589,0,0,0,3.5,3.5h0.5Zm-23.2,0a3.208,3.208,0,0,0,2.4-1.05,3.429,3.429,0,0,0,1-2.45v-43.4a3.428,3.428,0,0,0-1-2.45,3.208,3.208,0,0,0-2.4-1.05h-0.5a3.589,3.589,0,0,0-3.5,3.5v43.4a3.589,3.589,0,0,0,3.5,3.5h0.5Zm61.55-.95a4.108,4.108,0,0,0,.75-2.45v-2.3a5.606,5.606,0,0,0-.5-2.5,1.435,1.435,0,0,0-1.2-1,1.316,1.316,0,0,1-1.2-1,6.71,6.71,0,0,1-.4-2.5v-22.6a3.406,3.406,0,0,0-1.1-2.55,3.524,3.524,0,0,0-2.5-1.05h-2.3a3.208,3.208,0,0,0-2.4,1.05,3.548,3.548,0,0,0-1,2.55v24.5a8.542,8.542,0,0,0,.7,3.15,7.016,7.016,0,0,0,1.7,2.65l2.5,2.6a9.058,9.058,0,0,0,2.6,1.8,6.148,6.148,0,0,0,2.4.7A2.3,2.3,0,0,0,1248.35,401.215Zm-22.88-4.05a6.086,6.086,0,0,0,1.77-2.65,9.054,9.054,0,0,0,.66-3.15v-24.5a3.556,3.556,0,0,0-1.01-2.55,3.38,3.38,0,0,0-2.53-1.05h-2.12a3.592,3.592,0,0,0-2.53,1.05,3.379,3.379,0,0,0-1.11,2.55v22.6a5.615,5.615,0,0,1-.5,2.5,1.44,1.44,0,0,1-1.2,1,1.4,1.4,0,0,0-1.25,1,6.092,6.092,0,0,0-.45,2.5v2.3a4.108,4.108,0,0,0,.75,2.45,2.219,2.219,0,0,0,1.85,1.05,6.46,6.46,0,0,0,2.62-.7,9.208,9.208,0,0,0,2.63-1.8Zm60.68,4.05a3.36,3.36,0,0,0,1.05-2.45v-34.4a3.414,3.414,0,0,1,3.41-3.4h29.98a3.427,3.427,0,0,1,2.51,1,3.249,3.249,0,0,1,1,2.393v25.121a3.367,3.367,0,0,1-1,2.493,3.405,3.405,0,0,1-2.5,1h-18.4a3.373,3.373,0,0,0-2.5,1.01,3.435,3.435,0,0,0-1,2.527v2.225a3.491,3.491,0,0,0,1,2.477,3.3,3.3,0,0,0,2.5,1.061h27.66a3.431,3.431,0,0,0,2.48-1.052,3.343,3.343,0,0,0,1.06-2.455V355.171a3.318,3.318,0,0,0-1.05-2.5,3.44,3.44,0,0,0-2.45-1h-57.6a3.269,3.269,0,0,0-2.4,1.01,3.44,3.44,0,0,0-1,2.527v2.225a3.485,3.485,0,0,0,1,2.477,3.194,3.194,0,0,0,2.4,1.061h2.2a3.29,3.29,0,0,1,2.4,1,3.249,3.249,0,0,1,1,2.393v25.121a3.367,3.367,0,0,1-1,2.493,3.291,3.291,0,0,1-2.4,1h-2.2a3.261,3.261,0,0,0-2.4,1.01,3.435,3.435,0,0,0-1,2.527v2.225a3.524,3.524,0,0,0,.99,2.477,3.176,3.176,0,0,0,2.39,1.061h11.44A3.3,3.3,0,0,0,1286.15,401.215Zm-3.05-56.6a3.426,3.426,0,0,0,1-2.45v-19.1a3.589,3.589,0,0,1,3.5-3.5h28.8a3.208,3.208,0,0,1,2.4,1.05,3.428,3.428,0,0,1,1,2.45v19.1a3.589,3.589,0,0,0,3.5,3.5h8.4a3.208,3.208,0,0,0,2.4-1.05,3.426,3.426,0,0,0,1-2.45v-2.2a3.465,3.465,0,0,0-.9-2.4,2.846,2.846,0,0,0-2.2-1,2.789,2.789,0,0,1-2.15-1.1,3.734,3.734,0,0,1-.95-2.5v-19.1a3.414,3.414,0,0,0-3.41-3.4h-47.18a3.455,3.455,0,0,0-2.46,1,3.2,3.2,0,0,0-1.05,2.4v19.1a4.009,4.009,0,0,1-.84,2.5,2.457,2.457,0,0,1-2.01,1.1,2.725,2.725,0,0,0-2.21,1,3.611,3.611,0,0,0-.84,2.4v2.2a3.426,3.426,0,0,0,1,2.45,3.208,3.208,0,0,0,2.4,1.05h8.4A3.208,3.208,0,0,0,1283.1,344.615Zm97.56,40.45a3.486,3.486,0,0,0-2.52,1,3.335,3.335,0,0,0-1.04,2.5v2.3a3.569,3.569,0,0,0,3.56,3.5h1.78a3.486,3.486,0,0,1,2.52,1,3.219,3.219,0,0,1,1.04,2.4v1a3.332,3.332,0,0,0,1.06,2.45,3.539,3.539,0,0,0,2.58,1.05h2.12a3.38,3.38,0,0,0,2.53-1.05,3.439,3.439,0,0,0,1.01-2.45v-84.9a3.271,3.271,0,0,0-1.01-2.4,3.469,3.469,0,0,0-2.53-1h-2.12a3.635,3.635,0,0,0-2.58,1,3.173,3.173,0,0,0-1.06,2.4v2.9a3.222,3.222,0,0,1-1.04,2.4,3.49,3.49,0,0,1-2.52,1h-1.78a3.331,3.331,0,0,0-2.52,1.1,3.557,3.557,0,0,0-1.04,2.5v2.3a3.222,3.222,0,0,0,1.04,2.4,3.49,3.49,0,0,0,2.52,1h1.78a3.324,3.324,0,0,1,2.52,1.1,3.583,3.583,0,0,1,1.04,2.511v15.769a3.524,3.524,0,0,1-1.04,2.561,3.4,3.4,0,0,1-2.52,1.055h-1.78a3.422,3.422,0,0,0-2.52,1.039,3.331,3.331,0,0,0-1.04,2.423V358.1a3.332,3.332,0,0,0,1.04,2.425,3.425,3.425,0,0,0,2.52,1.038h1.78a3.569,3.569,0,0,1,3.56,3.5v16.6a3.222,3.222,0,0,1-1.04,2.4,3.5,3.5,0,0,1-2.52,1h-1.78Zm-7.26-58.4v-2.1a5.339,5.339,0,0,0-.55-2.6,1.592,1.592,0,0,0-1.35-1,1.7,1.7,0,0,1-1.4-1.1,5.132,5.132,0,0,1-.6-2.5v-3.5a3.2,3.2,0,0,0-1.05-2.4,3.449,3.449,0,0,0-2.45-1h-2.2a3.4,3.4,0,0,0-2.5,1,3.261,3.261,0,0,0-1,2.4v3.5a4.331,4.331,0,0,1-.75,2.5,2.2,2.2,0,0,1-1.85,1.1,1.976,1.976,0,0,0-1.6,1,4.417,4.417,0,0,0-.7,2.6v2.1a4.467,4.467,0,0,0,.7,2.55,1.964,1.964,0,0,0,1.6,1.05,2.219,2.219,0,0,1,1.85,1.05,4.106,4.106,0,0,1,.75,2.45v32.3a4.331,4.331,0,0,1-.75,2.5,2.2,2.2,0,0,1-1.85,1.1,1.976,1.976,0,0,0-1.6,1,4.232,4.232,0,0,0-.7,2.5v2.1a4.412,4.412,0,0,0,.7,2.6,1.974,1.974,0,0,0,1.6,1,2.219,2.219,0,0,1,1.85,1.05,4.272,4.272,0,0,1,.75,2.55v7a4.052,4.052,0,0,1-.75,2.5,2.25,2.25,0,0,1-1.85,1,1.971,1.971,0,0,0-1.6,1,4.227,4.227,0,0,0-.7,2.5v2.3a3.429,3.429,0,0,0,1,2.45,3.092,3.092,0,0,0,2.3,1.05,8.661,8.661,0,0,0,3.15-.7,8.331,8.331,0,0,0,2.85-1.8l2.3-2.6a6.488,6.488,0,0,0,1.8-2.65,8.542,8.542,0,0,0,.7-3.15v-8.9a5.064,5.064,0,0,1,.6-2.55,1.694,1.694,0,0,1,1.4-1.05,1.591,1.591,0,0,0,1.35-1,5.333,5.333,0,0,0,.55-2.6v-2.1a5.1,5.1,0,0,0-.55-2.5,1.592,1.592,0,0,0-1.35-1,1.7,1.7,0,0,1-1.4-1.1,5.132,5.132,0,0,1-.6-2.5v-32.3a4.853,4.853,0,0,1,.6-2.45,1.694,1.694,0,0,1,1.4-1.05,1.6,1.6,0,0,0,1.35-1.05,5.4,5.4,0,0,0,.55-2.55h0Zm45.4,2.8a3.445,3.445,0,0,0,2.45-1,3.2,3.2,0,0,0,1.05-2.4v-2.3a3.526,3.526,0,0,0-1.05-2.5,3.293,3.293,0,0,0-2.45-1.1h-2.3a3.414,3.414,0,0,1-3.4-3.4v-2.9a3.144,3.144,0,0,0-1.1-2.4,3.618,3.618,0,0,0-2.5-1h-2.3a3.618,3.618,0,0,0-2.5,1,3.144,3.144,0,0,0-1.1,2.4v84.9a3.3,3.3,0,0,0,1.1,2.45,3.524,3.524,0,0,0,2.5,1.05h2.3a3.524,3.524,0,0,0,2.5-1.05,3.3,3.3,0,0,0,1.1-2.45v-1a3.414,3.414,0,0,1,3.4-3.4h2.3a3.589,3.589,0,0,0,3.5-3.5v-2.3a3.307,3.307,0,0,0-1.05-2.5,3.441,3.441,0,0,0-2.45-1h-2.3a3.414,3.414,0,0,1-3.4-3.4v-17a3.414,3.414,0,0,1,3.4-3.4h2.3a3.309,3.309,0,0,0,2.45-1.088,3.467,3.467,0,0,0,1.05-2.473v-2.277a3.306,3.306,0,0,0-1.05-2.423,3.379,3.379,0,0,0-2.45-1.039h-2.3a3.2,3.2,0,0,1-2.4-1.055,3.451,3.451,0,0,1-1-2.461V333.08a3.628,3.628,0,0,1,1-2.511,3.137,3.137,0,0,1,2.4-1.1h2.3Zm87,67.787a7.2,7.2,0,0,0,1.7-2.605,8.208,8.208,0,0,0,.7-3.109V364.472a3.437,3.437,0,0,0-1-2.454,3.2,3.2,0,0,0-2.4-1.053h-59.5a3.2,3.2,0,0,0-2.4,1.053,3.437,3.437,0,0,0-1,2.454v34.285a3.445,3.445,0,0,0,1,2.456,3.21,3.21,0,0,0,2.4,1.052h52.08a8.631,8.631,0,0,0,3.16-.7,7.327,7.327,0,0,0,2.75-1.805Zm2.4-79.487a1.847,1.847,0,0,0-1-1.55,4.325,4.325,0,0,0-2.4-.65h-50.2a3.9,3.9,0,0,1-2.4-.75,2.232,2.232,0,0,1-1-1.85,2.155,2.155,0,0,0-1-1.75,4.056,4.056,0,0,0-2.5-.75h-2.3a3.414,3.414,0,0,0-3.4,3.4,8.525,8.525,0,0,0,.7,3.15,8.074,8.074,0,0,0,1.7,2.75l2.5,2.5a6.854,6.854,0,0,0,2.75,1.75,9.177,9.177,0,0,0,3.15.65h42.71a3.108,3.108,0,0,1,2.39,1.1,3.6,3.6,0,0,1,1,2.5v15.7a3.461,3.461,0,0,1-.9,2.4,2.96,2.96,0,0,1-2.3,1,2.606,2.606,0,0,1-2.05-1,3.564,3.564,0,0,1-.85-2.4v-1.2a8.474,8.474,0,0,0-.75-3.2,7.782,7.782,0,0,0-1.85-2.8l-2.3-2.4a7.76,7.76,0,0,0-2.85-1.75,9.2,9.2,0,0,0-3.15-.65h-36.6a3.286,3.286,0,0,0-2.4,1,3.38,3.38,0,0,0-1,2.5v2.1a3.426,3.426,0,0,0,1,2.45,3.208,3.208,0,0,0,2.4,1.05h34.6a3.667,3.667,0,0,1,2.55.95,2.845,2.845,0,0,1,1.05,2.15,2.893,2.893,0,0,1-1.05,2.3,3.785,3.785,0,0,1-2.55.9h-34.6a3.414,3.414,0,0,0-3.4,3.4v2.3a3.414,3.414,0,0,0,3.4,3.4h52.08a8.624,8.624,0,0,0,3.16-.7,10.723,10.723,0,0,0,2.85-1.6l2.41-2.4a9.558,9.558,0,0,0,1.7-2.85,8.525,8.525,0,0,0,.7-3.15v-28Zm-53.61,75.2a3.256,3.256,0,0,1-2.39-1,3.358,3.358,0,0,1-1-2.489V373.749a3.358,3.358,0,0,1,1-2.489,3.255,3.255,0,0,1,2.39-1h40.92a3.255,3.255,0,0,1,2.39,1,3.358,3.358,0,0,1,1,2.489V389.48a3.358,3.358,0,0,1-1,2.489,3.256,3.256,0,0,1-2.39,1h-40.92Z" transform="translate(-1182.41 -310.375)"/>
</svg>
