<svg xmlns="http://www.w3.org/2000/svg" width="152.5" height="91.811" viewBox="0 0 152.5 91.811">
  <metadata><?xpacket begin="﻿" id="W5M0MpCehiHzreSzNTczkc9d"?>
<x:xmpmeta xmlns:x="adobe:ns:meta/" x:xmptk="Adobe XMP Core 5.6-c142 79.160924, 2017/07/13-01:06:39        ">
   <rdf:RDF xmlns:rdf="http://www.w3.org/1999/02/22-rdf-syntax-ns#">
      <rdf:Description rdf:about=""/>
   </rdf:RDF>
</x:xmpmeta>
                                                                                                    
                                                                                                    
                                                                                                    
                                                                                                    
                                                                                                    
                                                                                                    
                                                                                                    
                                                                                                    
                                                                                                    
                                                                                                    
                                                                                                    
                                                                                                    
                                                                                                    
                                                                                                    
                                                                                                    
                                                                                                    
                                                                                                    
                                                                                                    
                                                                                                    
                                                                                                    
                           
<?xpacket end="w"?></metadata>
<defs>
    <style>
      .cls-1 {
        fill: #fff;
        fill-rule: evenodd;
      }
    </style>
  </defs>
  <path id="注册" class="cls-1" d="M1093.9,1061.53a4.6,4.6,0,0,0,.65,2.45,1.842,1.842,0,0,0,1.55,1.05,5.416,5.416,0,0,0,2.22-.7,8.314,8.314,0,0,0,2.43-1.8l2.63-2.6a6.986,6.986,0,0,0,1.71-2.65,8.591,8.591,0,0,0,.71-3.15v-39.5a3.432,3.432,0,0,0-3.44-3.5h-2.42a3.345,3.345,0,0,0-2.43,1,3.393,3.393,0,0,0-1.01,2.5v37.6a7.758,7.758,0,0,1-.35,2.5,1.159,1.159,0,0,1-.95,1,1.159,1.159,0,0,0-.95,1,7.758,7.758,0,0,0-.35,2.5v2.3Zm4.72-58.2a3.209,3.209,0,0,0,2.48,1.1,2.926,2.926,0,0,0,2.38-1.1l1.82-1.6a3.624,3.624,0,0,0,0-5l-1.82-1.6a2.946,2.946,0,0,0-2.38-1.1,3.232,3.232,0,0,0-2.48,1.1l-1.52,1.6a3.39,3.39,0,0,0,0,5Zm13.88-6.8a3.308,3.308,0,0,0,1.05,2.5,3.444,3.444,0,0,0,2.45,1h12.3a3.433,3.433,0,0,1,2.45,1,3.171,3.171,0,0,1,1.05,2.39v15.23a3.465,3.465,0,0,1-1.05,2.54,3.392,3.392,0,0,1-2.45,1.04H1116a3.443,3.443,0,0,0-2.45,1.01,3.38,3.38,0,0,0-1.05,2.53v2.32a3.241,3.241,0,0,0,1.05,2.43,3.443,3.443,0,0,0,2.45,1.01h12.3a3.589,3.589,0,0,1,3.5,3.5v17.2a3.315,3.315,0,0,1-1.05,2.5,3.433,3.433,0,0,1-2.45,1H1116a3.433,3.433,0,0,0-2.45,1,3.315,3.315,0,0,0-1.05,2.5v2.3a3.589,3.589,0,0,0,3.5,3.5h41.1a3.315,3.315,0,0,0,2.5-1.05,3.433,3.433,0,0,0,1-2.45v-2.3a3.418,3.418,0,0,0-3.5-3.5h-12.5a3.418,3.418,0,0,1-3.5-3.5v-17.2a3.433,3.433,0,0,1,1-2.45,3.315,3.315,0,0,1,2.5-1.05h12.5a3.393,3.393,0,0,0,2.5-1.01,3.306,3.306,0,0,0,1-2.43v-2.32a3.453,3.453,0,0,0-1-2.53,3.393,3.393,0,0,0-2.5-1.01h-12.5a3.342,3.342,0,0,1-2.5-1.04,3.541,3.541,0,0,1-1-2.54v-15.23a3.233,3.233,0,0,1,1-2.39,3.384,3.384,0,0,1,2.5-1h12.5a3.416,3.416,0,0,0,3.5-3.5v-2.3a3.418,3.418,0,0,0-3.5-3.5H1116a3.449,3.449,0,0,0-2.45,1,3.31,3.31,0,0,0-1.05,2.5v2.3Zm-13.88-12.3a3.229,3.229,0,0,0,2.48,1.1,2.943,2.943,0,0,0,2.38-1.1l1.82-1.7a3.5,3.5,0,0,0,0-4.9l-1.82-1.5a2.946,2.946,0,0,0-2.38-1.1,3.232,3.232,0,0,0-2.48,1.1l-1.52,1.5a3.278,3.278,0,0,0,0,4.9Zm51.58-8.7a6.779,6.779,0,0,1-2.5.4H1116a3.449,3.449,0,0,0-2.45,1,3.31,3.31,0,0,0-1.05,2.5v2.3a3.308,3.308,0,0,0,1.05,2.5,3.445,3.445,0,0,0,2.45,1h33.6a7.939,7.939,0,0,0,3.2-.75,12.172,12.172,0,0,0,2.8-1.65l2.4-2.6a8.2,8.2,0,0,0,1.8-2.4,5.421,5.421,0,0,0,.7-2.3,1.915,1.915,0,0,0-1-1.65,4.508,4.508,0,0,0-2.5-.65h-2.2a7.2,7.2,0,0,0-2.55.4,1.273,1.273,0,0,0-1.05,1A1.238,1.238,0,0,1,1150.2,975.531Zm34.6,86a3.335,3.335,0,0,0,1.06,2.45,3.413,3.413,0,0,0,2.48,1.05h2.42a3.09,3.09,0,0,0,2.38-1.05,3.523,3.523,0,0,0,.96-2.45v-36a3.412,3.412,0,0,1,1.02-2.45,3.255,3.255,0,0,1,2.4-1.05h1.46a3.082,3.082,0,0,1,2.34,1.05,3.474,3.474,0,0,1,.98,2.44v26.72a4.253,4.253,0,0,1-.69,2.49,1.968,1.968,0,0,1-1.66,1,2.2,2.2,0,0,0-1.82,1.01,4.206,4.206,0,0,0-.73,2.53v2.22a3.413,3.413,0,0,0,1.05,2.48,3.335,3.335,0,0,0,2.45,1.06h7.2a3.589,3.589,0,0,0,3.5-3.5v-36a6.191,6.191,0,0,1,.45-2.45,1.155,1.155,0,0,1,2.3,0,6.191,6.191,0,0,1,.45,2.45v36a3.589,3.589,0,0,0,3.5,3.5h2.2a3.208,3.208,0,0,0,2.4-1.05,3.433,3.433,0,0,0,1-2.45v-36a3.293,3.293,0,0,1,1.09-2.45,3.44,3.44,0,0,1,2.47-1.05h1.38a3.144,3.144,0,0,1,2.37,1.05,3.442,3.442,0,0,1,.99,2.44v26.72a4.473,4.473,0,0,1-.64,2.49,1.8,1.8,0,0,1-1.51,1,2.078,2.078,0,0,0-1.77,1.01,4.481,4.481,0,0,0-.68,2.53v2.22a3.485,3.485,0,0,0,1,2.48,3.182,3.182,0,0,0,2.4,1.06h7.1a3.208,3.208,0,0,0,2.4-1.05,3.433,3.433,0,0,0,1-2.45v-36a4.3,4.3,0,0,1,.7-2.45,2.1,2.1,0,0,1,1.8-1.05,2.03,2.03,0,0,0,1.7-1,4.027,4.027,0,0,0,.7-2.4v-2.3a4.069,4.069,0,0,0-.7-2.4,2.054,2.054,0,0,0-1.7-1,2.1,2.1,0,0,1-1.8-1.05,4.273,4.273,0,0,1-.7-2.45v-32.8a3.414,3.414,0,0,0-3.4-3.4h-19.8a3.449,3.449,0,0,0-2.45,1,3.2,3.2,0,0,0-1.05,2.4v32.8a6.157,6.157,0,0,1-.45,2.45,1.155,1.155,0,0,1-2.3,0,6.157,6.157,0,0,1-.45-2.45v-32.8a3.2,3.2,0,0,0-1.05-2.4,3.449,3.449,0,0,0-2.45-1h-19.8a3.449,3.449,0,0,0-2.45,1,3.2,3.2,0,0,0-1.05,2.4v32.8a4.572,4.572,0,0,1-.65,2.45,1.842,1.842,0,0,1-1.55,1.05,1.863,1.863,0,0,0-1.55,1,4.35,4.35,0,0,0-.65,2.4v2.3a4.3,4.3,0,0,0,.65,2.4,1.842,1.842,0,0,0,1.55,1,1.842,1.842,0,0,1,1.55,1.05,4.6,4.6,0,0,1,.65,2.45v36Zm9.3-75.7a3.407,3.407,0,0,1,1.02-2.45,3.255,3.255,0,0,1,2.4-1.05h1.46a3.082,3.082,0,0,1,2.34,1.05,3.493,3.493,0,0,1,.98,2.45v23.6a3.481,3.481,0,0,1-.98,2.45,3.082,3.082,0,0,1-2.34,1.05h-1.46a3.255,3.255,0,0,1-2.4-1.05,3.4,3.4,0,0,1-1.02-2.45v-23.6Zm29.8,0a3.288,3.288,0,0,1,1.09-2.45,3.44,3.44,0,0,1,2.47-1.05h1.38a3.144,3.144,0,0,1,2.37,1.05,3.46,3.46,0,0,1,.99,2.45v23.6a3.448,3.448,0,0,1-.99,2.45,3.144,3.144,0,0,1-2.37,1.05h-1.38a3.44,3.44,0,0,1-2.47-1.05,3.277,3.277,0,0,1-1.09-2.45v-23.6Z" transform="translate(-1093.91 -973.219)"/>
</svg>
