<svg xmlns="http://www.w3.org/2000/svg" width="326.18" height="91.812" viewBox="0 0 326.18 91.812">
  <metadata><?xpacket begin="﻿" id="W5M0MpCehiHzreSzNTczkc9d"?>
<x:xmpmeta xmlns:x="adobe:ns:meta/" x:xmptk="Adobe XMP Core 5.6-c142 79.160924, 2017/07/13-01:06:39        ">
   <rdf:RDF xmlns:rdf="http://www.w3.org/1999/02/22-rdf-syntax-ns#">
      <rdf:Description rdf:about=""/>
   </rdf:RDF>
</x:xmpmeta>
                                                                                                    
                                                                                                    
                                                                                                    
                                                                                                    
                                                                                                    
                                                                                                    
                                                                                                    
                                                                                                    
                                                                                                    
                                                                                                    
                                                                                                    
                                                                                                    
                                                                                                    
                                                                                                    
                                                                                                    
                                                                                                    
                                                                                                    
                                                                                                    
                                                                                                    
                                                                                                    
                           
<?xpacket end="w"?></metadata>
<defs>
    <style>
      .cls-1 {
        fill: #fff;
        fill-rule: evenodd;
      }
    </style>
  </defs>
  <path id="读取存档" class="cls-1" d="M1265.3,811.415a2.075,2.075,0,0,1-.35-2.1,2.047,2.047,0,0,1,1.95-.8h2.8a3.363,3.363,0,0,0,2.45-1.05,3.251,3.251,0,0,0,1.05-2.35v-2.4a3.31,3.31,0,0,0-1.05-2.5,3.449,3.449,0,0,0-2.45-1h-5.8a3.343,3.343,0,0,1-2.47-1.05,3.493,3.493,0,0,1-1.03-2.55v-22.8a3.288,3.288,0,0,0-1.09-2.45,3.457,3.457,0,0,0-2.47-1.05h-2.28a3.3,3.3,0,0,0-2.42,1.05,3.387,3.387,0,0,0-1.04,2.45v22.8a3.472,3.472,0,0,1-1.05,2.55,3.363,3.363,0,0,1-2.45,1.05H1228a3.449,3.449,0,0,0-2.45,1,3.31,3.31,0,0,0-1.05,2.5v2.4a3.251,3.251,0,0,0,1.05,2.35,3.363,3.363,0,0,0,2.45,1.05h15.7a1.874,1.874,0,0,1,1.8.742c0.27,0.492.03,1.136-.7,1.927l-3.1,3.461a9.632,9.632,0,0,1-2.7,1.779,7.6,7.6,0,0,1-3.2.791H1228a3.423,3.423,0,0,0-2.45,1.011,3.359,3.359,0,0,0-1.05,2.526v2.325a3.413,3.413,0,0,0,1.05,2.477,3.352,3.352,0,0,0,2.45,1.061h13.4a7.2,7.2,0,0,0,3.2-.85,7.852,7.852,0,0,0,2.6-1.95l6.1-7.8a2.452,2.452,0,0,1,2.1-1.15,2.524,2.524,0,0,1,2,1.15l5.3,7.6a6.705,6.705,0,0,0,2.45,2.1,6.453,6.453,0,0,0,3.05.9h1.6a3.472,3.472,0,0,0,2.55-1.05,3.358,3.358,0,0,0,1.05-2.45v-2.3a4.783,4.783,0,0,0-.6-2.5,1.691,1.691,0,0,0-1.4-1,3.781,3.781,0,0,1-2-.85,7.248,7.248,0,0,1-2-2.15Zm4.4-62.3a3.423,3.423,0,0,0,2.45-1.011,3.363,3.363,0,0,0,1.05-2.527v-2.225a3.412,3.412,0,0,0-1.05-2.475,3.349,3.349,0,0,0-2.45-1.062h-8a4.108,4.108,0,0,1-2.5-.735,2.178,2.178,0,0,1-1-1.814,2.086,2.086,0,0,0-1.1-1.715,4.555,4.555,0,0,0-2.6-.736h-2.1a4.39,4.39,0,0,0-2.5.736,2.086,2.086,0,0,0-1.1,1.715,2.178,2.178,0,0,1-1,1.814,3.948,3.948,0,0,1-2.4.735H1228a3.349,3.349,0,0,0-2.45,1.062,3.412,3.412,0,0,0-1.05,2.475v2.225a3.363,3.363,0,0,0,1.05,2.527,3.423,3.423,0,0,0,2.45,1.011h17.4a3.313,3.313,0,0,1,2.4.986,3.187,3.187,0,0,1,1,2.364,3.031,3.031,0,0,1-1,2.314,3.4,3.4,0,0,1-2.4.936H1228a3.349,3.349,0,0,0-2.45,1.062,3.412,3.412,0,0,0-1.05,2.475v2.325a3.25,3.25,0,0,0,1.05,2.427,3.423,3.423,0,0,0,2.45,1.011h32.3a3.4,3.4,0,0,1,2.55,1.1,3.526,3.526,0,0,1,1.05,2.5v14.1a3.472,3.472,0,0,0,1.05,2.55,3.363,3.363,0,0,0,2.45,1.05h2.3a3.363,3.363,0,0,0,2.45-1.05,3.472,3.472,0,0,0,1.05-2.55V759.252a3.412,3.412,0,0,0-1.05-2.475,3.349,3.349,0,0,0-2.45-1.062h-8a3.518,3.518,0,0,1-2.5-.936,3.031,3.031,0,0,1-1-2.314,3.187,3.187,0,0,1,1-2.364,3.428,3.428,0,0,1,2.5-.986h8Zm-63.3,8.1a4.606,4.606,0,0,0,.63,2.5,1.818,1.818,0,0,0,1.52,1,1.745,1.745,0,0,1,1.41,1.05,4.78,4.78,0,0,1,.64,2.55v50.4a4.524,4.524,0,0,1-.64,2.5,1.747,1.747,0,0,1-1.41,1,1.818,1.818,0,0,0-1.52,1,4.4,4.4,0,0,0-.63,2.4v1.4a3.428,3.428,0,0,0,1,2.45,3.208,3.208,0,0,0,2.4,1.05h6.7a3.374,3.374,0,0,0,2.4-.95,3,3,0,0,0,1-2.25v-68.3a3.548,3.548,0,0,0-1-2.55,3.208,3.208,0,0,0-2.4-1.05h-6.7a3.208,3.208,0,0,0-2.4,1.05,3.548,3.548,0,0,0-1,2.55v2.2Zm41,19.8a3.6,3.6,0,0,0-1-2.5,3.244,3.244,0,0,0-2.5-1.1h-4.7a6.191,6.191,0,0,1-2.45-.45,1.372,1.372,0,0,1-1.05-1.15,1.54,1.54,0,0,0-1.05-1.15,5.225,5.225,0,0,0-2.45-.55H1230a4.037,4.037,0,0,0-2.6.8,2.365,2.365,0,0,0-1,1.9v5.8a3.147,3.147,0,0,0,1,2.3,3.516,3.516,0,0,0,2.6,1h13.9a3.241,3.241,0,0,0,2.5-1.1,3.6,3.6,0,0,0,1-2.5v-1.3Zm-17.4,7.7a4.7,4.7,0,0,0-2.6.65,1.792,1.792,0,0,0-1,1.45v5.4a3.1,3.1,0,0,0,1,2.35,3.617,3.617,0,0,0,2.6.95h13.9a3.259,3.259,0,0,0,2.5-1.086,3.538,3.538,0,0,0,1-2.472v-1.383a3.2,3.2,0,0,0-1-2.37,3.418,3.418,0,0,0-2.5-.989h-4.7a7.459,7.459,0,0,1-2.45-.364,1.221,1.221,0,0,1-1.05-.991,1.145,1.145,0,0,0-1.05-.833,8.686,8.686,0,0,0-2.45-.312H1230Zm-14.1-47.6a3.751,3.751,0,0,0-5.1,0l-1.5,1.7a3,3,0,0,0-1,2.35,3.317,3.317,0,0,0,1,2.45l1.5,1.7a3.751,3.751,0,0,0,5.1,0l1.5-1.7a3.194,3.194,0,0,0,1.1-2.45,2.9,2.9,0,0,0-1.1-2.35Zm115.9,3.762a3.481,3.481,0,0,0,1,2.477,3.3,3.3,0,0,0,2.5,1.061H1347a3.411,3.411,0,0,1,3.4,3.395v36.356a14.573,14.573,0,0,1-.45,3.3,20.24,20.24,0,0,1-1.05,3.3l-1.4,2.9a2.139,2.139,0,0,1-1.7,1.349,1.911,1.911,0,0,1-1.7-1.349l-1.5-2.9a11.479,11.479,0,0,1-1.2-3.3,16.058,16.058,0,0,1-.4-3.3V751.307a3.245,3.245,0,0,0-1.1-2.5,3.622,3.622,0,0,0-2.5-1h-2.3a3.29,3.29,0,0,0-2.4,1,3.374,3.374,0,0,0-1,2.5v36.755a13.955,13.955,0,0,0,.5,3.347,12.189,12.189,0,0,0,1.2,3.145l5.5,9.489a6.659,6.659,0,0,1,.75,3.047,7.411,7.411,0,0,1-.55,3.145l-2.1,4a7.342,7.342,0,0,1-1.8,2.2,3.483,3.483,0,0,1-2.2.9,1.923,1.923,0,0,0-1.5,1,4.216,4.216,0,0,0-.7,2.5v2.3a3.587,3.587,0,0,0,3.5,3.5h2.6a5.406,5.406,0,0,0,2.85-.9,6.727,6.727,0,0,0,2.25-2.2l2.3-4.1a2.01,2.01,0,0,1,1.7-1.3,2.215,2.215,0,0,1,1.8,1.2l2.4,4.2a6.543,6.543,0,0,0,2.35,2.2,5.9,5.9,0,0,0,2.95.9h0.7a3.208,3.208,0,0,0,2.4-1.05,3.428,3.428,0,0,0,1-2.45v-2.3a6.7,6.7,0,0,0-.4-2.5,1.254,1.254,0,0,0-.9-1,2.3,2.3,0,0,1-1.45-.9,13.2,13.2,0,0,1-1.65-2.2l-2.3-4.3a8.052,8.052,0,0,1,0-6.1l5.1-9.2a10.927,10.927,0,0,0,1.25-3.25,15.244,15.244,0,0,0,.45-3.35v-49.6a3.428,3.428,0,0,0-1-2.45,3.208,3.208,0,0,0-2.4-1.05h-21a3.3,3.3,0,0,0-2.5,1.061,3.484,3.484,0,0,0-1,2.476v2.425Zm-38.45,69.888a6.464,6.464,0,0,0-.45,2.55v2.2a3.38,3.38,0,0,0,1,2.5,3.29,3.29,0,0,0,2.4,1h17.3a3.524,3.524,0,0,1,2.5,1.05,3.3,3.3,0,0,1,1.1,2.45v0.4a3.38,3.38,0,0,0,1,2.5,3.29,3.29,0,0,0,2.4,1h1.4a3.286,3.286,0,0,0,2.4-1,3.371,3.371,0,0,0,1-2.5V747.61a5.683,5.683,0,0,1,.5-2.447,1.5,1.5,0,0,1,1.3-1.048,1.353,1.353,0,0,0,1.15-1.011,6.222,6.222,0,0,0,.45-2.527v-2.325a3.316,3.316,0,0,0-1-2.426,3.378,3.378,0,0,0-2.5-1.011h-29a3.266,3.266,0,0,0-2.4,1.011,3.316,3.316,0,0,0-1,2.426v2.325a6.222,6.222,0,0,0,.45,2.527,1.353,1.353,0,0,0,1.15,1.011,1.411,1.411,0,0,1,1.25,1.048,6.173,6.173,0,0,1,.45,2.447v58.61a6.072,6.072,0,0,1-.45,2.5,1.4,1.4,0,0,1-1.25,1A1.369,1.369,0,0,0,1293.35,810.765Zm11.25-38.272a3.422,3.422,0,0,1,3.43-3.478h5.54a3.673,3.673,0,0,1,2.52.994,3.194,3.194,0,0,1,1.11,2.484v8.744a3.246,3.246,0,0,1-1.11,2.436,3.582,3.582,0,0,1-2.52,1.042h-5.54a3.245,3.245,0,0,1-2.42-1.042,3.407,3.407,0,0,1-1.01-2.436v-8.744Zm8.97-28.378a3.6,3.6,0,0,1,2.52,1.037,3.213,3.213,0,0,1,1.11,2.419v8.688a3.216,3.216,0,0,1-1.11,2.42,3.593,3.593,0,0,1-2.52,1.036h-5.54a3.254,3.254,0,0,1-2.42-1.036,3.375,3.375,0,0,1-1.01-2.42v-8.688a3.371,3.371,0,0,1,1.01-2.419,3.259,3.259,0,0,1,2.42-1.037h5.54Zm-8.97,53.5a3.556,3.556,0,0,1,1.01-2.55,3.235,3.235,0,0,1,2.42-1.05h5.54a3.57,3.57,0,0,1,2.52,1.05,3.379,3.379,0,0,1,1.11,2.55v8.6a3.224,3.224,0,0,1-1.11,2.5,3.67,3.67,0,0,1-2.52,1h-5.54a3.319,3.319,0,0,1-2.42-1,3.386,3.386,0,0,1-1.01-2.5v-8.6Zm78.16-32.2a3.22,3.22,0,0,0-2.37,1,3.291,3.291,0,0,0-.99,2.4v2.3a3.883,3.883,0,0,0,.75,2.4,2.245,2.245,0,0,0,1.85,1,2.1,2.1,0,0,1,1.8,1.05,4.288,4.288,0,0,1,.7,2.45v45.1a3.331,3.331,0,0,0,1.06,2.45,3.539,3.539,0,0,0,2.58,1.05h2.12a3.38,3.38,0,0,0,2.53-1.05,3.438,3.438,0,0,0,1.01-2.45v-45.1a5.691,5.691,0,0,1,.49-2.45,1.451,1.451,0,0,1,1.26-1.05,1.53,1.53,0,0,0,1.31-1,4.982,4.982,0,0,0,.54-2.4v-15.3a3.2,3.2,0,0,1,1.05-2.4,3.449,3.449,0,0,1,2.45-1H1442a3.445,3.445,0,0,0,2.45-1,3.2,3.2,0,0,0,1.05-2.4v-2.3a3.2,3.2,0,0,0-1.05-2.4,3.449,3.449,0,0,0-2.45-1h-41.1a3.589,3.589,0,0,1-3.5-3.5v-1.6a3.173,3.173,0,0,0-1.06-2.4,3.519,3.519,0,0,0-2.48-1h-2.12a3.635,3.635,0,0,0-2.58,1,3.173,3.173,0,0,0-1.06,2.4v1.6a3.458,3.458,0,0,1-.99,2.45,3.25,3.25,0,0,1-2.47,1.05h-1.88a3.22,3.22,0,0,0-2.37,1,3.291,3.291,0,0,0-.99,2.4v2.3a3.288,3.288,0,0,0,.99,2.4,3.216,3.216,0,0,0,2.37,1h1.88a3.332,3.332,0,0,1,2.47,1,3.291,3.291,0,0,1,.99,2.4v6.1a3.458,3.458,0,0,1-.99,2.45,3.25,3.25,0,0,1-2.47,1.05h-1.88Zm59.74,11.6a7.484,7.484,0,0,0,1.55-2.95,11.484,11.484,0,0,0,.55-3.25v-2.4a3.428,3.428,0,0,0-1-2.45,3.208,3.208,0,0,0-2.4-1.05h-37.1a3.315,3.315,0,0,0-2.5,1.05,3.428,3.428,0,0,0-1,2.45v1.4a3.258,3.258,0,0,0,1,2.4,3.4,3.4,0,0,0,2.5,1h26.97a1.8,1.8,0,0,1,1.87.85,1.912,1.912,0,0,1-.56,1.95l-5.46,6.8a11.779,11.779,0,0,0-1.46,2.8,8.653,8.653,0,0,0-.66,3.1,3.147,3.147,0,0,1-1,2.3,3.4,3.4,0,0,1-2.5,1H1404a3.418,3.418,0,0,0-3.5,3.5v2.2a3.258,3.258,0,0,0,1,2.4,3.4,3.4,0,0,0,2.5,1h17.3a3.324,3.324,0,0,1,2.5,1.044,3.4,3.4,0,0,1,1,2.434v9.244a3.347,3.347,0,0,1-1,2.484,3.407,3.407,0,0,1-2.5.994h-12.7a3.374,3.374,0,0,0-2.5,1.011,3.431,3.431,0,0,0-1,2.526v2.225a3.488,3.488,0,0,0,1,2.477,3.3,3.3,0,0,0,2.5,1.061h21.96a3.38,3.38,0,0,0,2.53-1.05,3.438,3.438,0,0,0,1.01-2.45v-18.5a3.358,3.358,0,0,1,1.05-2.45,3.472,3.472,0,0,1,2.55-1.05h3.5a3.414,3.414,0,0,0,3.4-3.4v-2.2a3.38,3.38,0,0,0-1-2.5,3.286,3.286,0,0,0-2.4-1h-3.5a5.886,5.886,0,0,1-2.55-.5,1.46,1.46,0,0,1-1.05-1.2,6.049,6.049,0,0,1,.55-2.15,8.249,8.249,0,0,1,1.55-2.45Zm68.8-42.2a3.455,3.455,0,0,0-2.45,1,3.183,3.183,0,0,0-1.05,2.392v26.222a3.529,3.529,0,0,1-1,2.542,3.319,3.319,0,0,1-2.5,1.047l-8.5.1a3.286,3.286,0,0,0-2.4,1,3.38,3.38,0,0,0-1,2.5v2.3a3.313,3.313,0,0,0,1,2.35,3.208,3.208,0,0,0,2.4,1.05h23.9a3.4,3.4,0,0,1,2.5,1,3.261,3.261,0,0,1,1,2.4v8.5a3.258,3.258,0,0,1-1,2.4,3.4,3.4,0,0,1-2.5,1h-23.9a3.414,3.414,0,0,0-3.4,3.4v2.4a3.378,3.378,0,0,0,1,2.5,3.283,3.283,0,0,0,2.4,1h23.9a3.4,3.4,0,0,1,2.5,1,3.261,3.261,0,0,1,1,2.4v8.3a3.261,3.261,0,0,1-1,2.4,3.4,3.4,0,0,1-2.5,1h-23.9a3.137,3.137,0,0,0-2.4,1.1,3.6,3.6,0,0,0-1,2.5v2.3a3.38,3.38,0,0,0,1,2.5,3.29,3.29,0,0,0,2.4,1h33.1a3.421,3.421,0,0,0,3.5-3.506V771.421a3.419,3.419,0,0,0-3.5-3.506l-8.3.1a3.418,3.418,0,0,1-3.5-3.5v-26.3a3.261,3.261,0,0,0-1-2.4,3.4,3.4,0,0,0-2.5-1h-2.3Zm-29.46,0a3.6,3.6,0,0,0-2.48.95,2.919,2.919,0,0,0-1.06,2.25,3.041,3.041,0,0,1-1.05,2.35,3.54,3.54,0,0,1-2.45.95h-5.5a3.286,3.286,0,0,0-2.4,1,3.38,3.38,0,0,0-1,2.5v2.3a3.426,3.426,0,0,0,1,2.45,3.208,3.208,0,0,0,2.4,1.05h5.5a3.449,3.449,0,0,1,2.45,1,3.31,3.31,0,0,1,1.05,2.5v0.7a3.308,3.308,0,0,1-1.05,2.5,3.445,3.445,0,0,1-2.45,1h-5a3.363,3.363,0,0,0-2.45,1.05,3.472,3.472,0,0,0-1.05,2.55v61.2a3.589,3.589,0,0,0,3.5,3.5h1.4a3.315,3.315,0,0,0,2.5-1.05,3.428,3.428,0,0,0,1-2.45v-52a6.181,6.181,0,0,1,.45-2.45,1.41,1.41,0,0,1,1.25-1.05,1.6,1.6,0,0,1,1.35,1.05,5.168,5.168,0,0,1,.55,2.45v51.9a3.331,3.331,0,0,0,1.06,2.45,3.413,3.413,0,0,0,2.48,1.05h2.22a3.38,3.38,0,0,0,2.53-1.05,3.438,3.438,0,0,0,1.01-2.45v-51.9a5.414,5.414,0,0,1,.53-2.45,1.515,1.515,0,0,1,1.12-1.05,1.439,1.439,0,0,0,1.26-1,5.358,5.358,0,0,0,.49-2.4v-2.3a5.949,5.949,0,0,0-.49-2.55,1.451,1.451,0,0,0-1.26-1.05,1.493,1.493,0,0,1-1.12-1,5.337,5.337,0,0,1-.53-2.5v-0.7a5.34,5.34,0,0,1,.53-2.5,1.5,1.5,0,0,1,1.12-1,1.451,1.451,0,0,0,1.26-1.05,5.688,5.688,0,0,0,.49-2.45v-2.3a5.617,5.617,0,0,0-.49-2.5,1.44,1.44,0,0,0-1.26-1,1.475,1.475,0,0,1-1.12-.95,4.8,4.8,0,0,1-.53-2.35,3,3,0,0,0-1.01-2.25,3.567,3.567,0,0,0-2.53-.95h-2.22Zm13.96,4.5a3.414,3.414,0,0,0-3.4,3.4v18.762a3.315,3.315,0,0,0,1,2.427,3.262,3.262,0,0,0,2.4,1.011h7.5a2.237,2.237,0,0,0,1.85-1.011,3.959,3.959,0,0,0,.75-2.427v-2.325a4.676,4.676,0,0,0-.65-2.475,1.8,1.8,0,0,0-1.45-1.062,1.74,1.74,0,0,1-1.5-1.05,4.851,4.851,0,0,1-.6-2.45v-9.4a3.261,3.261,0,0,0-1-2.4,3.4,3.4,0,0,0-2.5-1h-2.4Zm27.5,12.8a4.851,4.851,0,0,1-.6,2.45,1.694,1.694,0,0,1-1.4,1.05,1.844,1.844,0,0,0-1.55,1.062,4.676,4.676,0,0,0-.65,2.475v2.325a3.525,3.525,0,0,0,.9,2.427,2.827,2.827,0,0,0,2.2,1.011h7a3.262,3.262,0,0,0,2.4-1.011,3.315,3.315,0,0,0,1-2.427V742.715a3.414,3.414,0,0,0-3.4-3.4h-2.3a3.564,3.564,0,0,0-2.55,1,3.2,3.2,0,0,0-1.05,2.4v9.4Z" transform="translate(-1206.41 -734.813)"/>
</svg>
