<svg xmlns="http://www.w3.org/2000/svg" width="2487.558" height="700.395" viewBox="0 0 829.186 233.465">
  <metadata><?xpacket begin="﻿" id="W5M0MpCehiHzreSzNTczkc9d"?>
<x:xmpmeta xmlns:x="adobe:ns:meta/" x:xmptk="Adobe XMP Core 5.6-c142 79.160924, 2017/07/13-01:06:39        ">
   <rdf:RDF xmlns:rdf="http://www.w3.org/1999/02/22-rdf-syntax-ns#">
      <rdf:Description rdf:about=""/>
   </rdf:RDF>
</x:xmpmeta>
                                                                                                    
                                                                                                    
                                                                                                    
                                                                                                    
                                                                                                    
                                                                                                    
                                                                                                    
                                                                                                    
                                                                                                    
                                                                                                    
                                                                                                    
                                                                                                    
                                                                                                    
                                                                                                    
                                                                                                    
                                                                                                    
                                                                                                    
                                                                                                    
                                                                                                    
                                                                                                    
                           
<?xpacket end="w"?></metadata>
<defs>
    <style>
      .cls-1 {
        fill: #fff;
        fill-rule: evenodd;
      }
    </style>
  </defs>
  <path id="关卡介绍" class="cls-1" d="M651.982,1011.88a8.273,8.273,0,0,0-6.1,2.57,8.748,8.748,0,0,0-2.54,6.42v5.9a8.452,8.452,0,0,0,2.54,6.17,8.273,8.273,0,0,0,6.1,2.57h53.1c2.37,0,3.894.71,4.573,2.15s0.337,3.07-1.016,4.93l-33.788,45.79a18.547,18.547,0,0,1-6.224,5.06,16.877,16.877,0,0,1-8,2.27h-8.13a8.575,8.575,0,0,0-6.351,2.57,8.748,8.748,0,0,0-2.54,6.42v5.65a8.862,8.862,0,0,0,2.544,6.29,8.372,8.372,0,0,0,6.359,2.7h18.065a18.839,18.839,0,0,0,7.887-2.03,17.3,17.3,0,0,0,6.617-5.08l36.638-45.99a6.873,6.873,0,0,1,5.47-2.79,8.4,8.4,0,0,1,5.977,2.79l36.638,45.99a19.43,19.43,0,0,0,14.25,7.11h18.573a8.5,8.5,0,0,0,6.232-2.7,8.668,8.668,0,0,0,2.671-6.29v-5.65a8.538,8.538,0,0,0-2.667-6.42,8.7,8.7,0,0,0-6.224-2.57h-8.637a16.487,16.487,0,0,1-7.749-2.27,18.507,18.507,0,0,1-6.224-5.06l-33.787-45.79q-2.542-2.79-1.4-4.93c0.763-1.44,2.327-2.15,4.7-2.15h53.1a8.7,8.7,0,0,0,6.224-2.57,8.259,8.259,0,0,0,2.667-6.17v-5.9a8.538,8.538,0,0,0-2.667-6.42,8.7,8.7,0,0,0-6.224-2.57H747.756a8.619,8.619,0,0,1-6.351-2.53,8.224,8.224,0,0,1-2.541-6.06L739.119,975a8.539,8.539,0,0,1,2.54-6.316,8.645,8.645,0,0,1,6.351-2.528h54.619a8.485,8.485,0,0,0,6.224-2.7,8.669,8.669,0,0,0,2.667-6.292v-5.652a8.557,8.557,0,0,0-2.671-6.419,8.716,8.716,0,0,0-6.232-2.568H651.994a8.29,8.29,0,0,0-6.105,2.568,8.751,8.751,0,0,0-2.544,6.419v5.652a8.88,8.88,0,0,0,2.54,6.292,8.073,8.073,0,0,0,6.1,2.7h54.365a8.649,8.649,0,0,1,6.351,2.528A8.555,8.555,0,0,1,715.239,975v28.294a8.24,8.24,0,0,1-2.541,6.06,8.624,8.624,0,0,1-6.351,2.53H651.982Zm-8.637-90.947a8.554,8.554,0,0,0,2.568,6.351,8.449,8.449,0,0,0,6.164,2.54H703.3a9.126,9.126,0,0,0,6.351-2.568,8.359,8.359,0,0,0,2.794-6.419v-5.652a8.484,8.484,0,0,0-2.794-6.288,8.915,8.915,0,0,0-6.351-2.7H675.608a8.345,8.345,0,0,1-6.1-2.509,8.152,8.152,0,0,1-2.54-6.021v-3.009a8.13,8.13,0,0,0-2.569-6.022,8.83,8.83,0,0,0-6.418-2.508h-5.907a8.461,8.461,0,0,0-6.164,2.54,8.263,8.263,0,0,0-2.568,6.1v26.167Zm165.476,6.351a8.361,8.361,0,0,0,2.7-6.351V894.766a8.088,8.088,0,0,0-2.7-6.1,8.893,8.893,0,0,0-6.287-2.54h-5.653a8.818,8.818,0,0,0-6.418,2.508,8.114,8.114,0,0,0-2.568,6.022v3.009a8.168,8.168,0,0,1-2.541,6.021A8.663,8.663,0,0,1,779,906.2h-27.69a8.486,8.486,0,0,0-6.225,2.7,8.666,8.666,0,0,0-2.667,6.288v5.652a8.541,8.541,0,0,0,2.667,6.419,8.679,8.679,0,0,0,6.225,2.568h51.221A8.881,8.881,0,0,0,808.821,927.284Zm95.933,183.166a9.12,9.12,0,0,0,8.891,8.89h5.843a8.406,8.406,0,0,0,6.351-2.67,8.747,8.747,0,0,0,2.54-6.22v-98.82a8.754,8.754,0,0,1,2.541-6.23,8.4,8.4,0,0,1,6.351-2.67H1023.9a8.289,8.289,0,0,0,6.1-2.56,8.481,8.481,0,0,0,2.54-6.169V988.1a8.783,8.783,0,0,0-2.54-6.419,8.293,8.293,0,0,0-6.1-2.568H937.271a8.64,8.64,0,0,1-6.351-2.524,8.535,8.535,0,0,1-2.541-6.316v-25a8.662,8.662,0,0,1,2.541-6.188,8.43,8.43,0,0,1,6.351-2.652H1023.9a8.1,8.1,0,0,0,6.1-2.695,8.9,8.9,0,0,0,2.54-6.292V921.79a8.783,8.783,0,0,0-2.54-6.419,8.3,8.3,0,0,0-6.1-2.568H937.271a8.437,8.437,0,0,1-6.351-2.639,8.918,8.918,0,0,1-2.541-6.419v-9.062a8.211,8.211,0,0,0-2.54-6.038,8.673,8.673,0,0,0-6.351-2.516h-5.843a8.742,8.742,0,0,0-6.224,2.536,8.092,8.092,0,0,0-2.667,6.077v75.5a8.669,8.669,0,0,1-8.892,8.868H871.728a8.266,8.266,0,0,0-6.1,2.568,8.763,8.763,0,0,0-2.54,6.419V994a8.461,8.461,0,0,0,2.54,6.169,8.262,8.262,0,0,0,6.1,2.56h24.134a8.406,8.406,0,0,1,6.351,2.67,8.771,8.771,0,0,1,2.541,6.23v98.82Zm57-84.6a8.532,8.532,0,0,0-6.418,2.67,8.677,8.677,0,0,0-2.569,6.22v23.63a21.614,21.614,0,0,0,1.8,8,21.118,21.118,0,0,0,4.62,7.24l5.906,6.35a24.267,24.267,0,0,0,7.316,4.32,22.821,22.821,0,0,0,8.3,1.78h43.438a8.672,8.672,0,0,0,8.64-8.64v-5.84a9.071,9.071,0,0,0-2.54-6.48,8.121,8.121,0,0,0-6.1-2.67H985.539a9.019,9.019,0,0,1-6.478-2.54,8.4,8.4,0,0,1-2.668-6.35v-18.8a8.692,8.692,0,0,0-2.568-6.22,8.546,8.546,0,0,0-6.418-2.67h-5.653ZM1215.7,958.785a22.254,22.254,0,0,0,1.78,8.256,18.51,18.51,0,0,0,4.57,6.986l6.35,6.351a26.007,26.007,0,0,0,7.12,4.446,20.13,20.13,0,0,0,8.12,1.905,8.156,8.156,0,0,0,6.1-2.639,8.613,8.613,0,0,0,2.54-6.157V971.9a10.251,10.251,0,0,0-1.9-6.157,5.648,5.648,0,0,0-4.7-2.64,5.429,5.429,0,0,1-4.45-2.683,10.546,10.546,0,0,1-1.9-6.268V894.568a8.416,8.416,0,0,0-2.54-6.137,8.312,8.312,0,0,0-6.1-2.556H1104.94a9.03,9.03,0,0,0-6.48,2.556,8.2,8.2,0,0,0-2.67,6.137v59.584a10.546,10.546,0,0,1-1.9,6.268,5.442,5.442,0,0,1-4.45,2.683,5.648,5.648,0,0,0-4.7,2.64,10.251,10.251,0,0,0-1.9,6.157v6.033a8.572,8.572,0,0,0,2.54,6.157,8.135,8.135,0,0,0,6.09,2.639h0.51a20.6,20.6,0,0,0,8-1.905,21.947,21.947,0,0,0,6.99-4.446l6.1-6.351a18.629,18.629,0,0,0,4.57-6.986,22.455,22.455,0,0,0,1.78-8.256V918.646a9.111,9.111,0,0,1,9.14-9.145h78.25a8.416,8.416,0,0,1,6.35,2.667,9.063,9.063,0,0,1,2.54,6.478v40.139Zm-5.84,151.665a8.658,8.658,0,0,0,2.57,6.22,8.234,8.234,0,0,0,6.16,2.67h5.91a8.564,8.564,0,0,0,6.42-2.67,8.689,8.689,0,0,0,2.56-6.22V1006.29a9.147,9.147,0,0,0-2.56-6.351,8.387,8.387,0,0,0-6.42-2.794h-5.91a8.073,8.073,0,0,0-6.16,2.794,9.113,9.113,0,0,0-2.57,6.351v104.16Zm-86.95-4.07a17.678,17.678,0,0,0,4.36-6.73,21.6,21.6,0,0,0,1.8-8v-85.36a9.158,9.158,0,0,0-2.57-6.351,8.351,8.351,0,0,0-6.41-2.794h-5.66a8.5,8.5,0,0,0-6.29,2.794,8.9,8.9,0,0,0-2.69,6.351v80.28a8.9,8.9,0,0,1-8.9,9.14h-5.08a8.309,8.309,0,0,0-6.09,2.54,8.584,8.584,0,0,0-2.54,6.35v5.85a8.71,8.71,0,0,0,2.54,6.22,8.1,8.1,0,0,0,6.09,2.67h9.91a22.35,22.35,0,0,0,8.05-1.78,21.731,21.731,0,0,0,7.32-4.57Zm329.89,11.18a21.439,21.439,0,0,0,7.26-4.57l6.36-6.35a21.551,21.551,0,0,0,4.21-6.74,20.611,20.611,0,0,0,1.91-8v-73.92a8.743,8.743,0,0,0-2.55-6.23,8.158,8.158,0,0,0-6.11-2.67h-91.92a9.143,9.143,0,0,0-8.92,8.9v92.47q0,3.555.26,6.22t0.51,2.67h80.97A22.034,22.034,0,0,0,1452.8,1117.56Zm-59.23-133.371a21.114,21.114,0,0,0,4.54-7.24,21.908,21.908,0,0,0,1.77-8V918.9a8.3,8.3,0,0,1,2.55-6.1,8.411,8.411,0,0,1,6.13-2.54h30.9a8.711,8.711,0,0,1,6.39,2.54,8.3,8.3,0,0,1,2.55,6.1v45.22a8.754,8.754,0,0,1-2.54,6.224,8.4,8.4,0,0,1-6.35,2.667h-20.32a8.758,8.758,0,0,0-6.23,2.54,8.434,8.434,0,0,0-2.66,6.352v5.588a8.844,8.844,0,0,0,2.66,6.478,8.529,8.529,0,0,0,6.23,2.668h25.4a20.966,20.966,0,0,0,8.05-1.9,23.247,23.247,0,0,0,7.32-4.688l6.16-5.831a23.5,23.5,0,0,0,4.36-7.221,21.536,21.536,0,0,0,1.8-7.986v-73.5a8.692,8.692,0,0,0-2.55-6.208,8.152,8.152,0,0,0-6.1-2.663l-92.18-.254a9.12,9.12,0,0,0-8.91,8.891v6.1a10.1,10.1,0,0,0,1.99,6.224,5.812,5.812,0,0,0,4.74,2.668,6.221,6.221,0,0,1,4.86,2.54,9.177,9.177,0,0,1,2.12,6.1v45.22a9.671,9.671,0,0,1-2.12,6.224,6.126,6.126,0,0,1-4.86,2.667,5.9,5.9,0,0,0-4.74,2.54,9.969,9.969,0,0,0-1.99,6.352v5.588a8.865,8.865,0,0,0,2.64,6.478,8.458,8.458,0,0,0,6.19,2.668h0.76a19.948,19.948,0,0,0,8.07-1.9,23.192,23.192,0,0,0,7.07-4.7Zm-90.99,71.891a8.623,8.623,0,0,0,2.54,6.35,8.293,8.293,0,0,0,6.1,2.54h31.25a8.689,8.689,0,0,0,6.22-2.56,8.534,8.534,0,0,0,2.67-6.42v-5.66a8.654,8.654,0,0,0-2.67-6.28,8.477,8.477,0,0,0-6.22-2.7h-3.05q-3.81,0-5.46-2.41c-1.11-1.6-1.06-3.58.12-5.95l16.01-42.537a14.876,14.876,0,0,0,1.27-8.356,17.3,17.3,0,0,0-2.54-7.851l-1.78-3.037a15.9,15.9,0,0,0-5.84-5.442,14.966,14.966,0,0,0-7.37-2.155,6.1,6.1,0,0,1-5.34-2.533,7.432,7.432,0,0,1-1.01-6.077l17.27-60.01a7.438,7.438,0,0,0-1.01-6.077,6.106,6.106,0,0,0-5.34-2.532l-8.64-.254a11.085,11.085,0,0,0-6.85,2.54,10.336,10.336,0,0,0-4.07,6.1l-14.23,59.954c-0.5,2.374-.97,5.252-1.39,8.637a70.237,70.237,0,0,0-.64,8.638v6.351a8.672,8.672,0,0,0,8.64,8.637h6.6a5.87,5.87,0,0,1,5.21,2.414q1.65,2.416-.12,5.716l-16.77,38.107a37.576,37.576,0,0,0-2.54,8.38,45.1,45.1,0,0,0-1.02,8.64v5.84Zm137.4-23.37a8.36,8.36,0,0,1,6.12,2.54,8.617,8.617,0,0,1,2.56,6.35v45.22a8.6,8.6,0,0,1-2.56,6.35,8.36,8.36,0,0,1-6.12,2.54h-44.64a8.376,8.376,0,0,1-6.12-2.54,8.593,8.593,0,0,1-2.55-6.35V1041.6a8.608,8.608,0,0,1,2.55-6.35,8.376,8.376,0,0,1,6.12-2.54h44.64Zm-88.62,71.89a8.4,8.4,0,0,0-2.67-6.35,8.751,8.751,0,0,0-6.22-2.54h-31.25a8.331,8.331,0,0,0-6.1,2.54,8.623,8.623,0,0,0-2.54,6.35v5.85a8.751,8.751,0,0,0,2.54,6.22,8.121,8.121,0,0,0,6.1,2.67h31.25a9.126,9.126,0,0,0,8.89-8.89v-5.85Z" transform="translate(-643.344 -885.875)"/>
</svg>
