<svg xmlns="http://www.w3.org/2000/svg" width="412.782" height="91.906" viewBox="0 0 412.782 91.906">
  <metadata><?xpacket begin="﻿" id="W5M0MpCehiHzreSzNTczkc9d"?>
<x:xmpmeta xmlns:x="adobe:ns:meta/" x:xmptk="Adobe XMP Core 5.6-c142 79.160924, 2017/07/13-01:06:39        ">
   <rdf:RDF xmlns:rdf="http://www.w3.org/1999/02/22-rdf-syntax-ns#">
      <rdf:Description rdf:about=""/>
   </rdf:RDF>
</x:xmpmeta>
                                                                                                    
                                                                                                    
                                                                                                    
                                                                                                    
                                                                                                    
                                                                                                    
                                                                                                    
                                                                                                    
                                                                                                    
                                                                                                    
                                                                                                    
                                                                                                    
                                                                                                    
                                                                                                    
                                                                                                    
                                                                                                    
                                                                                                    
                                                                                                    
                                                                                                    
                                                                                                    
                           
<?xpacket end="w"?></metadata>
<defs>
    <style>
      .cls-1 {
        fill: #fff;
        fill-rule: evenodd;
      }
    </style>
  </defs>
  <path id="南开华容道" class="cls-1" d="M530.8,590.866a4.489,4.489,0,0,0-2.5.715,2,2,0,0,0-1.1,1.633,2.1,2.1,0,0,1-1,1.738,4.023,4.023,0,0,1-2.4.714h-22a3.21,3.21,0,0,0-2.4,1.039,3.385,3.385,0,0,0-1,2.423V601.5a3.384,3.384,0,0,0,1,2.424,3.21,3.21,0,0,0,2.4,1.039h22a3.414,3.414,0,0,1,3.4,3.4v0.7a3.393,3.393,0,0,1-1,2.5,3.273,3.273,0,0,1-2.4,1h-22a3.2,3.2,0,0,0-2.4,1.05,3.56,3.56,0,0,0-1,2.55v63a3.442,3.442,0,0,0,1,2.45,3.2,3.2,0,0,0,2.4,1.05h2.4a3.31,3.31,0,0,0,2.5-1.05,3.446,3.446,0,0,0,1-2.45v-53.8a3.44,3.44,0,0,1,1-2.45,3.308,3.308,0,0,1,2.5-1.05h41.1a3.31,3.31,0,0,1,2.5,1.05,3.444,3.444,0,0,1,1,2.45v44.5a3.418,3.418,0,0,1-3.5,3.5h-4.7a3.266,3.266,0,0,0-2.4,1,3.388,3.388,0,0,0-1,2.5v2.3a3.442,3.442,0,0,0,1,2.45,3.2,3.2,0,0,0,2.4,1.05h6.6a8.635,8.635,0,0,0,3.15-.7,8.409,8.409,0,0,0,2.85-1.8l2.5-2.5a7.028,7.028,0,0,0,1.7-2.65,8.623,8.623,0,0,0,.7-3.15v-55.7a3.564,3.564,0,0,0-1-2.55,3.2,3.2,0,0,0-2.4-1.05H540.1a3.612,3.612,0,0,1-2.5-1,3.235,3.235,0,0,1-1.1-2.5v-0.7a3.131,3.131,0,0,1,1.1-2.4,3.616,3.616,0,0,1,2.5-1h21.6a3.213,3.213,0,0,0,2.4-1.039,3.388,3.388,0,0,0,1-2.424v-2.375a3.389,3.389,0,0,0-1-2.423,3.213,3.213,0,0,0-2.4-1.039H540.1a4.488,4.488,0,0,1-2.5-.714,2.06,2.06,0,0,1-1.1-1.738,2.02,2.02,0,0,0-1-1.633,4.023,4.023,0,0,0-2.4-.715h-2.3Zm-17.1,68.9a3.443,3.443,0,0,0-2.45,1,3.31,3.31,0,0,0-1.05,2.5v2.4a3.2,3.2,0,0,0,1.05,2.4,3.447,3.447,0,0,0,2.45,1h10.1a3.414,3.414,0,0,1,3.4,3.4v6.7a3.286,3.286,0,0,0,1.1,2.45,3.523,3.523,0,0,0,2.5,1.05h2.3a3.2,3.2,0,0,0,2.4-1.05,3.446,3.446,0,0,0,1-2.45v-6.7a3.125,3.125,0,0,1,1.1-2.4,3.607,3.607,0,0,1,2.5-1H550a3.4,3.4,0,0,0,2.5-1,3.28,3.28,0,0,0,1-2.4v-2.4a3.418,3.418,0,0,0-3.5-3.5h-9.9a3.612,3.612,0,0,1-2.5-1,3.235,3.235,0,0,1-1.1-2.5v-0.2a3.131,3.131,0,0,1,1.1-2.4,3.616,3.616,0,0,1,2.5-1H550a3.31,3.31,0,0,0,2.5-1.05,3.443,3.443,0,0,0,1-2.45v-2.3a3.418,3.418,0,0,0-3.5-3.5H513.7a3.443,3.443,0,0,0-2.45,1,3.31,3.31,0,0,0-1.05,2.5v2.3a3.589,3.589,0,0,0,3.5,3.5h10.1a3.414,3.414,0,0,1,3.4,3.4v0.2a3.393,3.393,0,0,1-1,2.5,3.273,3.273,0,0,1-2.4,1H513.7Zm35.3-32.3h-2.3a5.815,5.815,0,0,0-2.4.45,1.394,1.394,0,0,0-1,1.25,1.355,1.355,0,0,1-1,1.15,6.1,6.1,0,0,1-2.5.45h-3a3.131,3.131,0,0,0-2.4,1.1,3.615,3.615,0,0,0-1,2.5v2.3a3.438,3.438,0,0,0,1,2.45,3.2,3.2,0,0,0,2.4,1.05h4.8a9.325,9.325,0,0,0,6-2.5l2.4-2.5a11.884,11.884,0,0,0,1.75-2.55,5.7,5.7,0,0,0,.75-2.55,2.244,2.244,0,0,0-1-1.85,4.05,4.05,0,0,0-2.5-.75h0Zm-34.4,0a3.883,3.883,0,0,0-2.4.75,2.241,2.241,0,0,0-1,1.85,6.009,6.009,0,0,0,.7,2.55,10.591,10.591,0,0,0,1.7,2.55l2.4,2.5a9.325,9.325,0,0,0,6,2.5h4.7a3.31,3.31,0,0,0,2.5-1.05,3.443,3.443,0,0,0,1-2.45v-2.3a3.62,3.62,0,0,0-1-2.5,3.24,3.24,0,0,0-2.5-1.1h-2.8a6.178,6.178,0,0,1-2.45-.45,1.372,1.372,0,0,1-1.05-1.15,1.4,1.4,0,0,0-1-1.25,5.821,5.821,0,0,0-2.4-.45h-2.4Zm73.7,45.9a3.266,3.266,0,0,0-2.4,1,3.388,3.388,0,0,0-1,2.5v2.3a3.442,3.442,0,0,0,1,2.45,3.2,3.2,0,0,0,2.4,1.05h3.9a8.782,8.782,0,0,0,3.169-.7,8.49,8.49,0,0,0,2.879-1.8l2.325-2.6a7.012,7.012,0,0,0,1.719-2.65,8.527,8.527,0,0,0,.708-3.15v-20.8a3.473,3.473,0,0,1,1.047-2.55,3.339,3.339,0,0,1,2.442-1.05h23.822a3.185,3.185,0,0,1,2.392,1.05,3.57,3.57,0,0,1,1,2.55v28.1a3.3,3.3,0,0,0,1.087,2.45,3.468,3.468,0,0,0,2.474,1.05h2.178a3.467,3.467,0,0,0,2.472-1.05,3.307,3.307,0,0,0,1.089-2.45v-28.1a3.472,3.472,0,0,1,1.05-2.55,3.357,3.357,0,0,1,2.45-1.05h1.3a3.3,3.3,0,0,0,2.5-1.061,3.627,3.627,0,0,0,1-2.578V641.6a3.453,3.453,0,0,0-1-2.526,3.373,3.373,0,0,0-2.5-1.011h-1.3a3.29,3.29,0,0,1-2.45-1.1,3.513,3.513,0,0,1-1.05-2.494V603.556a3.582,3.582,0,0,1,3.5-3.49h1.3a3.369,3.369,0,0,0,2.5-1.011,3.451,3.451,0,0,0,1-2.527V594.2a3.33,3.33,0,0,0-1-2.426,3.373,3.373,0,0,0-2.5-1.011H588.3a3.253,3.253,0,0,0-2.4,1.011,3.326,3.326,0,0,0-1,2.426v2.325a3.447,3.447,0,0,0,1,2.527,3.25,3.25,0,0,0,2.4,1.011h1.9a3.321,3.321,0,0,1,2.5,1.046,3.432,3.432,0,0,1,1,2.444v30.919a3.606,3.606,0,0,1-1,2.494,3.244,3.244,0,0,1-2.5,1.1h-1.9a3.253,3.253,0,0,0-2.4,1.011,3.449,3.449,0,0,0-1,2.526v2.124a3.623,3.623,0,0,0,1,2.578,3.181,3.181,0,0,0,2.4,1.061h1.9a3.31,3.31,0,0,1,2.5,1.05,3.564,3.564,0,0,1,1,2.55v18.9a3.418,3.418,0,0,1-3.5,3.5h-1.9Zm14.7-69.81a3.577,3.577,0,0,1,3.489-3.49h23.822a3.2,3.2,0,0,1,2.392,1.046,3.438,3.438,0,0,1,1,2.444v30.919a3.611,3.611,0,0,1-1,2.494,3.125,3.125,0,0,1-2.392,1.1H606.489a3.274,3.274,0,0,1-2.442-1.1A3.513,3.513,0,0,1,603,634.475V603.556Zm68.4,58.61a3.438,3.438,0,0,0,1,2.45,3.2,3.2,0,0,0,2.4,1.05h21.3a3.436,3.436,0,0,1,2.45,1,3.192,3.192,0,0,1,1.05,2.4v10.1a3.442,3.442,0,0,0,1,2.45,3.2,3.2,0,0,0,2.4,1.05h2.2a3.589,3.589,0,0,0,3.5-3.5v-10.1a3.414,3.414,0,0,1,3.4-3.4h21.2a3.472,3.472,0,0,0,2.55-1.05,3.357,3.357,0,0,0,1.05-2.45v-2.1a3.358,3.358,0,0,0-1.05-2.45,3.472,3.472,0,0,0-2.55-1.05H712.1a3.194,3.194,0,0,1-2.4-1.05,3.438,3.438,0,0,1-1-2.45v-3.2a3.31,3.31,0,0,0-1.05-2.5,3.444,3.444,0,0,0-2.45-1H703a3.274,3.274,0,0,0-2.4,1,3.391,3.391,0,0,0-1,2.5v3.2a3.589,3.589,0,0,1-3.5,3.5H674.8a3.2,3.2,0,0,0-2.4,1.05,3.44,3.44,0,0,0-1,2.45v2.1Zm8-58.2a3.317,3.317,0,0,1-.95,2.45,3.191,3.191,0,0,1-2.35.95h-1.3a3.414,3.414,0,0,0-3.4,3.4v2.3a4.058,4.058,0,0,0,.65,2.35,1.863,1.863,0,0,0,1.55.95,1.849,1.849,0,0,1,1.55,1.05,4.563,4.563,0,0,1,.65,2.45v22.6a3.2,3.2,0,0,0,1.05,2.4,3.438,3.438,0,0,0,2.45,1h2.2a3.414,3.414,0,0,0,3.4-3.4v-26.2a8.4,8.4,0,0,1,.55-2.9,6.249,6.249,0,0,1,1.35-2.3,5.641,5.641,0,0,0,1.2-2.25,9.906,9.906,0,0,0,.5-3.05v-11.5a3.364,3.364,0,0,0-.95-2.4,3.117,3.117,0,0,0-2.35-1h-2.3a3.393,3.393,0,0,0-2.5,1,3.273,3.273,0,0,0-1,2.4v9.7Zm29.5,38.5a9.458,9.458,0,0,0,2.8,1.7,8.418,8.418,0,0,0,3.2.7h18.4a3.56,3.56,0,0,0,2.55-1,3.2,3.2,0,0,0,1.05-2.4v-2.3a3.358,3.358,0,0,0-1.05-2.45,3.472,3.472,0,0,0-2.55-1.05l-16.7.1a3.413,3.413,0,0,1-2.35-.95,3.041,3.041,0,0,1-1.05-2.35v-6.3a3.2,3.2,0,0,1,1.05-2.4,3.33,3.33,0,0,1,2.35-1H726a8.117,8.117,0,0,0,3.15-.75,10,10,0,0,0,2.75-1.65l2.3-2.4a6.857,6.857,0,0,0,1.85-2.6,7.95,7.95,0,0,0,.75-3.2v-17.9a3.2,3.2,0,0,0-1.05-2.4,3.444,3.444,0,0,0-2.45-1h-2.2a3.414,3.414,0,0,0-3.4,3.4v16a3.2,3.2,0,0,1-1.05,2.4,3.56,3.56,0,0,1-2.55,1h-7.5a3.326,3.326,0,0,1-2.35-1,3.2,3.2,0,0,1-1.05-2.4v-16a3.414,3.414,0,0,0-3.4-3.4h-2.2a3.414,3.414,0,0,0-3.4,3.4v16a3.2,3.2,0,0,1-1.05,2.4,3.44,3.44,0,0,1-2.45,1h-2.9a3.2,3.2,0,0,0-2.4,1.05,3.44,3.44,0,0,0-1,2.45v2.2a3.414,3.414,0,0,0,3.4,3.4h2.9a3.444,3.444,0,0,1,2.45,1,3.2,3.2,0,0,1,1.05,2.4v8.1a8.418,8.418,0,0,0,.7,3.2,8.132,8.132,0,0,0,1.7,2.7Zm49,36.689a3.456,3.456,0,0,0,1,2.457,3.189,3.189,0,0,0,2.4,1.054h51.9a8.6,8.6,0,0,0,3.15-.7,6.458,6.458,0,0,0,2.65-1.806l2.5-2.51a6.458,6.458,0,0,0,1.8-2.657,8.7,8.7,0,0,0,.7-3.161V655.977a3.323,3.323,0,0,0-1.05-2.508,3.435,3.435,0,0,0-2.45-1H761.3a3.262,3.262,0,0,0-2.4,1,3.4,3.4,0,0,0-1,2.508v23.178Zm0-63.289a3.39,3.39,0,0,0,1,2.5,3.267,3.267,0,0,0,2.4,1h2.3a4.05,4.05,0,0,0,2.5-.75,2.245,2.245,0,0,0,1-1.85,2.241,2.241,0,0,1,1-1.85,3.879,3.879,0,0,1,2.4-.75h40.8a4.05,4.05,0,0,1,2.5.75,2.246,2.246,0,0,1,1,1.85,2.24,2.24,0,0,0,1,1.85,4.046,4.046,0,0,0,2.5.75h2.2a3.44,3.44,0,0,0,2.45-1,3.308,3.308,0,0,0,1.05-2.5v-6.7a3.589,3.589,0,0,0-3.5-3.5H761.3a3.192,3.192,0,0,0-2.4,1.05,3.44,3.44,0,0,0-1,2.45v6.7Zm9.5,24.8a5.077,5.077,0,0,1-1,.1h-4.9a3.392,3.392,0,0,0-2.5,1,3.273,3.273,0,0,0-1,2.4v1.3a3.438,3.438,0,0,0,1,2.45,3.307,3.307,0,0,0,2.5,1.05h5.4a7.774,7.774,0,0,0,3.1-.75,7.883,7.883,0,0,0,2.7-1.85l1-1.1a6.756,6.756,0,0,1,2.6-2,7.368,7.368,0,0,1,3.1-.8h23a7.774,7.774,0,0,1,3.1.75,6.865,6.865,0,0,1,2.6,1.85l1.2,1.4a8.751,8.751,0,0,0,2.7,1.75,7.759,7.759,0,0,0,3.1.75h5.4a3.589,3.589,0,0,0,3.5-3.5v-1.3a3.2,3.2,0,0,0-1.05-2.4,3.444,3.444,0,0,0-2.45-1h-2.6q-1.5,0-2.55-.05c-0.7-.033-1.085-0.05-1.15-0.05q0-.2-0.05-1.1c-0.035-.6-0.05-1.333-0.05-2.2a2.793,2.793,0,0,0-1.05-2.2,3.649,3.649,0,0,0-2.45-.9H771.2a3.646,3.646,0,0,0-2.45.9,2.793,2.793,0,0,0-1.05,2.2q0,1.3-.05,2.2a2,2,0,0,1-.25,1.1h0Zm-9.5-41.3a3.414,3.414,0,0,0,3.4,3.4h51.9a8.594,8.594,0,0,0,3.15-.7,9.215,9.215,0,0,0,2.75-1.6l2.3-2.3a8.854,8.854,0,0,0,1.85-2.4,5.415,5.415,0,0,0,.75-2.5,2.023,2.023,0,0,0-1.05-1.7,4.319,4.319,0,0,0-2.45-.7h-3.2a6.46,6.46,0,0,0-2.4.4,1.27,1.27,0,0,0-1,1.1,1.425,1.425,0,0,1-1,1.1,5.309,5.309,0,0,1-2.4.5H761.3a3.27,3.27,0,0,0-2.4,1,3.391,3.391,0,0,0-1,2.5v1.9Zm9.3,65.77a3.234,3.234,0,0,1,1-2.378,3.269,3.269,0,0,1,2.391-.992h40.628a3.386,3.386,0,0,1,2.489.992,3.236,3.236,0,0,1,1,2.378V669.9a3.4,3.4,0,0,1-3.486,3.471H770.586a3.276,3.276,0,0,1-2.391-.991,3.361,3.361,0,0,1-1-2.48v-4.759Zm-9.3-37.308a3.327,3.327,0,0,0,1,2.427,3.246,3.246,0,0,0,2.4,1.011H772a9.487,9.487,0,0,0,3.35-.708,10.566,10.566,0,0,0,2.95-1.617l2.1-1.821a8.217,8.217,0,0,0,1.8-2.626,7.511,7.511,0,0,0,.8-3.128v-1a3.358,3.358,0,0,0-1.05-2.45,3.472,3.472,0,0,0-2.55-1.05h-2.1a4.1,4.1,0,0,0-2.45.75,2.215,2.215,0,0,0-1.05,1.85,2.092,2.092,0,0,1-1.05,1.8,4.311,4.311,0,0,1-2.45.7h-9a3.176,3.176,0,0,0-2.4,1.062,3.5,3.5,0,0,0-1,2.475v2.325Zm45.4-10.962a3.589,3.589,0,0,0-3.5,3.5v1a7.8,7.8,0,0,0,.8,3.178,6.332,6.332,0,0,0,1.9,2.576l2.1,1.821a10.83,10.83,0,0,0,2.85,1.617,8.5,8.5,0,0,0,3.15.708h9.9a3.418,3.418,0,0,0,2.45-1.011,3.25,3.25,0,0,0,1.05-2.427V625.5a3.412,3.412,0,0,0-1.05-2.475,3.34,3.34,0,0,0-2.45-1.062h-8a4.307,4.307,0,0,1-2.45-.7,2.092,2.092,0,0,1-1.05-1.8,2.246,2.246,0,0,0-1-1.85,4.05,4.05,0,0,0-2.5-.75h-2.2Zm44.1,54a3.208,3.208,0,0,1-.466,1.8,1.321,1.321,0,0,1-1.086.7,1.268,1.268,0,0,0-1.034,1,6.541,6.541,0,0,0-.414,2.5v2.3a4.314,4.314,0,0,0,.7,2.45,1.957,1.957,0,0,0,1.6,1.05,5.738,5.738,0,0,0,2.5-.7,9.65,9.65,0,0,0,2.5-1.8l1.7-1.7a3.436,3.436,0,0,1,2.5-1.1,3.612,3.612,0,0,1,2.5,1l1.8,1.8a7.285,7.285,0,0,0,2.8,1.8,9.01,9.01,0,0,0,3.2.7h41.5a3.589,3.589,0,0,0,3.5-3.5v-2.3a3.307,3.307,0,0,0-1.05-2.5,3.436,3.436,0,0,0-2.45-1H869.9a8.784,8.784,0,0,1-3.1-.65,10.147,10.147,0,0,1-2.7-1.45,1.45,1.45,0,0,1-.5-1.55,1.709,1.709,0,0,1,1.7-.65h42.4a3.448,3.448,0,0,0,2.45-1,3.2,3.2,0,0,0,1.05-2.4v-44.1a3.589,3.589,0,0,0-3.5-3.5H893.5a6.174,6.174,0,0,1-2.45-.45,1.372,1.372,0,0,1-1.05-1.15,1.445,1.445,0,0,1,1.05-1.1,5.64,5.64,0,0,1,2.45-.5h14.2a3.418,3.418,0,0,0,2.45-1.011,3.363,3.363,0,0,0,1.05-2.527V609a3.249,3.249,0,0,0-1.05-2.426,3.422,3.422,0,0,0-2.45-1.011H863a3.37,3.37,0,0,0-2.5,1.011,3.326,3.326,0,0,0-1,2.426v2.325a3.447,3.447,0,0,0,1,2.527,3.366,3.366,0,0,0,2.5,1.011h14.2a5.647,5.647,0,0,1,2.45.5,1.445,1.445,0,0,1,1.05,1.1,1.372,1.372,0,0,1-1.05,1.15,6.181,6.181,0,0,1-2.45.45H863a3.307,3.307,0,0,0-2.5,1.05,3.44,3.44,0,0,0-1,2.45v41.6a3.161,3.161,0,0,1-.45,1.95,0.757,0.757,0,0,1-1.15.05,5.192,5.192,0,0,1-.85-2.05,12.437,12.437,0,0,1-.35-2.95v-49.3a3.134,3.134,0,0,0-1.1-2.4,3.622,3.622,0,0,0-2.5-1h-6.4a1.969,1.969,0,0,0-1.6,1,4.078,4.078,0,0,0-.7,2.4v2.3a6.545,6.545,0,0,0,.414,2.5,1.27,1.27,0,0,0,1.034,1,1.364,1.364,0,0,1,1.086,1,5.673,5.673,0,0,1,.466,2.4v50.8Zm63.8-76.6a3.2,3.2,0,0,0-1.05-2.4,3.444,3.444,0,0,0-2.45-1h-2.3a5.5,5.5,0,0,0-2.45.514,1.533,1.533,0,0,0-1.05,1.336,1.532,1.532,0,0,1-1.05,1.336,5.753,5.753,0,0,1-2.55.514h-6.6a3.283,3.283,0,0,0-2.4.989,3.327,3.327,0,0,0-1,2.468v1.385a3.331,3.331,0,0,0,1,2.47,3.286,3.286,0,0,0,2.4.988h16a3.44,3.44,0,0,0,2.45-1,3.308,3.308,0,0,0,1.05-2.5v-5.1Zm-48.2-3.4a3.392,3.392,0,0,0-2.5,1,3.273,3.273,0,0,0-1,2.4v5.1a3.418,3.418,0,0,0,3.5,3.5h15.8a3.641,3.641,0,0,0,2.5-.988,3.185,3.185,0,0,0,1.1-2.47v-1.385a3.181,3.181,0,0,0-1.1-2.468,3.637,3.637,0,0,0-2.5-.989h-6.6a5.5,5.5,0,0,1-2.45-.514,1.532,1.532,0,0,1-1.05-1.336,1.544,1.544,0,0,0-1.1-1.336,5.84,5.84,0,0,0-2.5-.514H863Zm35.3,36.5a3.927,3.927,0,0,1,2.55.85,2.336,2.336,0,0,1,0,3.9,3.922,3.922,0,0,1-2.55.85H872.2a3.773,3.773,0,0,1-2.45-.85,2.336,2.336,0,0,1,0-3.9,3.779,3.779,0,0,1,2.45-.85h26.1Zm-26.1,27.2h26.1a4.272,4.272,0,0,1,2.55.75,2.155,2.155,0,0,1,0,3.7,4.272,4.272,0,0,1-2.55.75H872.2a4.1,4.1,0,0,1-2.45-.75,2.155,2.155,0,0,1,0-3.7,4.1,4.1,0,0,1,2.45-.75h0Zm26.1-8.3H872.2a4.1,4.1,0,0,1-2.45-.75,2.141,2.141,0,0,1-1.05-1.75,2.023,2.023,0,0,1,1.05-1.7,4.314,4.314,0,0,1,2.45-.7h26.1a4.5,4.5,0,0,1,2.55.7,2.023,2.023,0,0,1,1.05,1.7,2.141,2.141,0,0,1-1.05,1.75,4.272,4.272,0,0,1-2.55.75h0Zm-43.3-46.3a3.621,3.621,0,0,0,1-2.5,3.449,3.449,0,0,0-1.1-2.5l-1.5-1.6a3.073,3.073,0,0,0-2.4-1,3.392,3.392,0,0,0-2.5,1l-1.7,1.6a3.625,3.625,0,0,0,0,5l1.7,1.6a3.234,3.234,0,0,0,2.5,1.1,2.942,2.942,0,0,0,2.4-1.1Z" transform="translate(-498.406 -590.75)"/>
</svg>
